<?xml version="1.0" encoding="utf-8"?>
<!-- Generator: Adobe Illustrator 23.0.3, SVG Export Plug-In . SVG Version: 6.00 Build 0)  -->
<svg version="1.1" id="Ebene_1" xmlns="http://www.w3.org/2000/svg" xmlns:xlink="http://www.w3.org/1999/xlink" x="0px" y="0px"
	 viewBox="0 0 24 24" style="enable-background:new 0 0 24 24;" xml:space="preserve">
<g>
	<path d="M20,18h-1c-0.6,0-1-0.4-1-1s0.4-1,1-1h1c0.6,0,1-0.4,1-1V5c0-0.6-0.4-1-1-1H4C3.4,4,3,4.4,3,5v10c0,0.6,0.4,1,1,1h1
		c0.6,0,1,0.4,1,1s-0.4,1-1,1H4c-1.7,0-3-1.3-3-3V5c0-1.7,1.3-3,3-3h16c1.7,0,3,1.3,3,3v10C23,16.7,21.7,18,20,18z"/>
</g>
<g>
	<path d="M17,22H7c-0.4,0-0.7-0.2-0.9-0.6C5.9,21,6,20.6,6.2,20.3l5-6c0.4-0.5,1.2-0.5,1.5,0l5,6c0.2,0.3,0.3,0.7,0.1,1.1
		C17.7,21.8,17.4,22,17,22z M9.1,20h5.7L12,16.6L9.1,20z"/>
</g>
</svg>
