<?xml version="1.0" encoding="utf-8"?>
<!-- Generator: Adobe Illustrator 23.0.3, SVG Export Plug-In . SVG Version: 6.00 Build 0)  -->
<svg version="1.1" id="Ebene_1" xmlns="http://www.w3.org/2000/svg" xmlns:xlink="http://www.w3.org/1999/xlink" x="0px" y="0px"
	 viewBox="0 0 24 24" style="enable-background:new 0 0 24 24;" xml:space="preserve">
<g>
	<path d="M3.5,22c-0.5,0-1-0.1-1.5-0.4c-1.4-0.8-1.9-2.7-1.1-4.1L9.4,3.3l0,0c0.2-0.4,0.6-0.8,1-1c0.7-0.4,1.5-0.5,2.3-0.3
		s1.4,0.7,1.9,1.4L23,17.5c0.3,0.5,0.4,1,0.4,1.5c0,0.8-0.3,1.6-0.9,2.1c-0.5,0.6-1.2,0.9-2,0.9H3.5z M11.1,4.4L2.7,18.5
		c-0.3,0.5-0.1,1.1,0.4,1.4C3.2,20,3.4,20,3.5,20h16.9c0.3,0,0.5-0.1,0.7-0.3c0.2-0.2,0.3-0.4,0.3-0.7c0-0.2,0-0.3-0.1-0.5L12.9,4.4
		C12.6,3.9,12,3.8,11.5,4C11.3,4.1,11.2,4.2,11.1,4.4z"/>
</g>
<g>
	<path d="M12,14c-0.6,0-1-0.4-1-1V9c0-0.6,0.4-1,1-1s1,0.4,1,1v4C13,13.6,12.6,14,12,14z"/>
</g>
<g>
	<path d="M12,18c-0.3,0-0.5-0.1-0.7-0.3C11.1,17.5,11,17.3,11,17c0-0.1,0-0.3,0.1-0.4s0.1-0.2,0.2-0.3c0.4-0.4,1-0.4,1.4,0
		c0.1,0.1,0.2,0.2,0.2,0.3c0,0.1,0.1,0.2,0.1,0.4s0,0.3-0.1,0.4s-0.1,0.2-0.2,0.3C12.5,17.9,12.3,18,12,18z"/>
</g>
</svg>
