<?xml version="1.0" encoding="utf-8"?>
<!-- Generator: Adobe Illustrator 23.0.3, SVG Export Plug-In . SVG Version: 6.00 Build 0)  -->
<svg version="1.1" id="Ebene_1" xmlns="http://www.w3.org/2000/svg" xmlns:xlink="http://www.w3.org/1999/xlink" x="0px" y="0px"
	 viewBox="0 0 24 24" style="enable-background:new 0 0 24 24;" xml:space="preserve">
<g>
	<path d="M16.1,23H7.9c-0.3,0-0.5-0.1-0.7-0.3l-5.9-5.9C1.1,16.7,1,16.4,1,16.1V7.9c0-0.3,0.1-0.5,0.3-0.7l5.9-5.9
		C7.3,1.1,7.6,1,7.9,1h8.3c0.3,0,0.5,0.1,0.7,0.3l5.9,5.9C22.9,7.3,23,7.6,23,7.9v8.3c0,0.3-0.1,0.5-0.3,0.7l-5.9,5.9
		C16.7,22.9,16.4,23,16.1,23z M8.3,21h7.5l5.3-5.3V8.3L15.7,3H8.3L3,8.3v7.5L8.3,21z"/>
</g>
<g>
	<path d="M12,13c-0.6,0-1-0.4-1-1V8c0-0.6,0.4-1,1-1s1,0.4,1,1v4C13,12.6,12.6,13,12,13z"/>
</g>
<g>
	<path d="M12,17c-0.1,0-0.3,0-0.4-0.1c-0.1,0-0.2-0.1-0.3-0.2C11.1,16.5,11,16.3,11,16c0-0.1,0-0.3,0.1-0.4c0.1-0.1,0.1-0.2,0.2-0.3
		c0.1-0.1,0.2-0.2,0.3-0.2c0.2-0.1,0.5-0.1,0.8,0c0.1,0,0.2,0.1,0.3,0.2c0.1,0.1,0.2,0.2,0.2,0.3S13,15.8,13,16
		c0,0.3-0.1,0.5-0.3,0.7C12.5,16.9,12.3,17,12,17z"/>
</g>
</svg>
