<?xml version="1.0" encoding="utf-8"?>
<!-- Generator: Adobe Illustrator 23.0.3, SVG Export Plug-In . SVG Version: 6.00 Build 0)  -->
<svg version="1.1" id="Ebene_1" xmlns="http://www.w3.org/2000/svg" xmlns:xlink="http://www.w3.org/1999/xlink" x="0px" y="0px"
	 viewBox="0 0 24 24" style="enable-background:new 0 0 24 24;" xml:space="preserve">
<g>
	<path d="M12,9C9.8,9,8,7.2,8,5s1.8-4,4-4s4,1.8,4,4S14.2,9,12,9z M12,3c-1.1,0-2,0.9-2,2s0.9,2,2,2s2-0.9,2-2S13.1,3,12,3z"/>
</g>
<g>
	<path d="M12,23c-0.6,0-1-0.4-1-1V8c0-0.6,0.4-1,1-1s1,0.4,1,1v14C13,22.6,12.6,23,12,23z"/>
</g>
<g>
	<path d="M12,23C5.9,23,1,18.1,1,12c0-0.6,0.4-1,1-1h3c0.6,0,1,0.4,1,1s-0.4,1-1,1H3.1c0.5,4.5,4.3,8,8.9,8s8.4-3.5,8.9-8H19
		c-0.6,0-1-0.4-1-1s0.4-1,1-1h3c0.6,0,1,0.4,1,1C23,18.1,18.1,23,12,23z"/>
</g>
</svg>
