<?xml version="1.0" encoding="utf-8"?>
<!-- Generator: Adobe Illustrator 23.0.3, SVG Export Plug-In . SVG Version: 6.00 Build 0)  -->
<svg version="1.1" id="Ebene_1" xmlns="http://www.w3.org/2000/svg" xmlns:xlink="http://www.w3.org/1999/xlink" x="0px" y="0px"
	 viewBox="0 0 24 24" style="enable-background:new 0 0 24 24;" xml:space="preserve">
<path d="M12,1C5.9,1,1,5.9,1,12s4.9,11,11,11s11-4.9,11-11S18.1,1,12,1z M13.7,15h-3.4l-1.7-3l1.7-3h3.5l1.7,2.9L13.7,15z M3,12
	c0-1.4,0.3-2.8,0.9-4l4,7H3.5C3.2,14.1,3,13.1,3,12z M16.2,9h4.3c0.3,0.9,0.5,1.9,0.5,3c0,1.4-0.3,2.7-0.9,3.9L16.2,9z M19.5,7h-8
	l2.2-3.8C16.1,3.6,18.2,5,19.5,7z M11.4,3l-4,6.9L5.2,6.1C6.7,4.3,8.9,3.2,11.4,3z M4.5,17h8l-2.2,3.8C7.9,20.4,5.8,19,4.5,17z
	 M12.6,21l4-7l2.2,3.9C17.4,19.6,15.1,20.8,12.6,21z"/>
</svg>
