<?xml version="1.0" encoding="utf-8"?>
<!-- Generator: Adobe Illustrator 23.0.3, SVG Export Plug-In . SVG Version: 6.00 Build 0)  -->
<svg version="1.1" id="Ebene_1" xmlns="http://www.w3.org/2000/svg" xmlns:xlink="http://www.w3.org/1999/xlink" x="0px" y="0px"
	 viewBox="0 0 24 24" style="enable-background:new 0 0 24 24;" xml:space="preserve">
<g>
	<path d="M12,20c-0.6,0-1-0.4-1-1V5c0-0.6,0.4-1,1-1s1,0.4,1,1v14C13,19.6,12.6,20,12,20z"/>
</g>
<g>
	<path d="M12,20c-0.3,0-0.5-0.1-0.7-0.3l-7-7c-0.4-0.4-0.4-1,0-1.4s1-0.4,1.4,0l6.3,6.3l6.3-6.3c0.4-0.4,1-0.4,1.4,0s0.4,1,0,1.4
		l-7,7C12.5,19.9,12.3,20,12,20z"/>
</g>
</svg>
