<?xml version="1.0" encoding="utf-8"?>
<!-- Generator: Adobe Illustrator 23.0.3, SVG Export Plug-In . SVG Version: 6.00 Build 0)  -->
<svg version="1.1" id="Ebene_1" xmlns="http://www.w3.org/2000/svg" xmlns:xlink="http://www.w3.org/1999/xlink" x="0px" y="0px"
	 viewBox="0 0 24 24" style="enable-background:new 0 0 24 24;" xml:space="preserve">
<g>
	<path d="M17,18c-0.3,0-0.5-0.1-0.7-0.3l-10-10c-0.4-0.4-0.4-1,0-1.4s1-0.4,1.4,0l10,10c0.4,0.4,0.4,1,0,1.4
		C17.5,17.9,17.3,18,17,18z"/>
</g>
<g>
	<path d="M7,18c-0.6,0-1-0.4-1-1V7c0-0.6,0.4-1,1-1h10c0.6,0,1,0.4,1,1s-0.4,1-1,1H8v9C8,17.6,7.6,18,7,18z"/>
</g>
</svg>
