<?xml version="1.0" encoding="utf-8"?>
<!-- Generator: Adobe Illustrator 23.0.3, SVG Export Plug-In . SVG Version: 6.00 Build 0)  -->
<svg version="1.1" id="Ebene_1" xmlns="http://www.w3.org/2000/svg" xmlns:xlink="http://www.w3.org/1999/xlink" x="0px" y="0px"
	 viewBox="0 0 24 24" style="enable-background:new 0 0 24 24;" xml:space="preserve">
<g>
	<path d="M12,16c-4.4,0-8-3.6-8-8s3.6-8,8-8s8,3.6,8,8S16.4,16,12,16z M12,2C8.7,2,6,4.7,6,8s2.7,6,6,6s6-2.7,6-6S15.3,2,12,2z"/>
</g>
<g>
	<path d="M17,24c-0.2,0-0.4,0-0.5-0.1L12,21.2l-4.5,2.7c-0.3,0.2-0.7,0.2-1.1,0c-0.3-0.2-0.5-0.6-0.4-1l1.2-9.1
		c0.1-0.5,0.6-0.9,1.1-0.9c0.6,0.1,1,0.6,0.9,1.1l-0.9,7.1l3.2-1.9c0.3-0.2,0.7-0.2,1,0l3.2,1.9L14.8,14c-0.1-0.5,0.3-1.1,0.9-1.1
		c0.6-0.1,1.1,0.3,1.1,0.9l1.2,9.1c0.1,0.4-0.1,0.8-0.4,1C17.4,23.9,17.2,24,17,24z"/>
</g>
</svg>
