<?xml version="1.0" encoding="utf-8"?>
<!-- Generator: Adobe Illustrator 23.0.3, SVG Export Plug-In . SVG Version: 6.00 Build 0)  -->
<svg version="1.1" id="Ebene_1" xmlns="http://www.w3.org/2000/svg" xmlns:xlink="http://www.w3.org/1999/xlink" x="0px" y="0px"
	 viewBox="0 0 24 24" style="enable-background:new 0 0 24 24;" xml:space="preserve">
<g>
	<path d="M17,19h-3.2c-0.6,0-1-0.4-1-1s0.4-1,1-1H17c0.6,0,1-0.4,1-1V8c0-0.6-0.4-1-1-1h-2c-0.6,0-1-0.4-1-1s0.4-1,1-1h2
		c1.7,0,3,1.3,3,3v8C20,17.7,18.7,19,17,19z M5,19H3c-1.7,0-3-1.3-3-3V8c0-1.7,1.3-3,3-3h3.2c0.6,0,1,0.4,1,1s-0.4,1-1,1H3
		C2.4,7,2,7.4,2,8v8c0,0.6,0.4,1,1,1h2c0.6,0,1,0.4,1,1S5.6,19,5,19z"/>
</g>
<g>
	<path d="M23,14c-0.6,0-1-0.4-1-1v-2c0-0.6,0.4-1,1-1s1,0.4,1,1v2C24,13.6,23.6,14,23,14z"/>
</g>
<g>
	<path d="M9,19c-0.2,0-0.4-0.1-0.6-0.2c-0.5-0.3-0.6-0.9-0.3-1.4l3-4.4H7c-0.4,0-0.7-0.2-0.9-0.5c-0.2-0.3-0.2-0.7,0-1l4-6
		C10.4,5,11,4.9,11.5,5.2c0.5,0.3,0.6,0.9,0.3,1.4l-3,4.4H13c0.4,0,0.7,0.2,0.9,0.5s0.2,0.7,0,1l-4,6C9.6,18.8,9.3,19,9,19z"/>
</g>
</svg>
