<?xml version="1.0" encoding="utf-8"?>
<!-- Generator: Adobe Illustrator 23.0.3, SVG Export Plug-In . SVG Version: 6.00 Build 0)  -->
<svg version="1.1" id="Ebene_1" xmlns="http://www.w3.org/2000/svg" xmlns:xlink="http://www.w3.org/1999/xlink" x="0px" y="0px"
	 viewBox="0 0 24 24" style="enable-background:new 0 0 24 24;" xml:space="preserve">
<g>
	<path d="M12,23c-0.5,0-1-0.1-1.5-0.4C10,22.3,9.7,22,9.4,21.5s-0.1-1.1,0.4-1.4s1.1-0.1,1.4,0.4c0.1,0.1,0.2,0.3,0.4,0.4
		c0.5,0.3,1.1,0.1,1.4-0.4c0.3-0.5,0.9-0.6,1.4-0.4c0.5,0.3,0.6,0.9,0.4,1.4C14,22.5,13,23,12,23z"/>
</g>
<g>
	<path d="M18.6,14c-0.4,0-0.8-0.3-1-0.7C17.2,11.5,17,9.8,17,8c0-0.5,0.5-1,1-1l0,0c0.6,0,1,0.5,1,1c0,1.6,0.2,3.2,0.6,4.7
		c0.1,0.5-0.2,1.1-0.7,1.2C18.8,14,18.7,14,18.6,14z"/>
</g>
<g>
	<path d="M17,18H3c-0.4,0-0.8-0.3-1-0.7c-0.1-0.4,0-0.9,0.4-1.1c0,0,2.6-1.9,2.6-8.2c0-0.7,0.1-1.4,0.3-2C5.5,5.4,6,5.1,6.6,5.3
		C7.1,5.5,7.4,6,7.2,6.6C7.1,7,7,7.5,7,8c0,4-1,6.5-1.9,8H17c0.6,0,1,0.4,1,1S17.6,18,17,18z"/>
</g>
<g>
	<path d="M18,9L18,9c-0.6,0-1-0.4-1-1c0-1.3-0.5-2.6-1.5-3.5C14.6,3.5,13.3,3,12,3l0,0c-1,0-2,0.3-2.8,0.8C8.8,4.1,8.1,4,7.8,3.6
		C7.5,3.1,7.7,2.5,8.1,2.2C9.3,1.4,10.6,1,12,1l0,0c3.9,0,7,3.2,7,7C19,8.6,18.6,9,18,9z"/>
</g>
<g>
	<path d="M23,24c-0.3,0-0.5-0.1-0.7-0.3l-22-22c-0.4-0.4-0.4-1,0-1.4s1-0.4,1.4,0l22,22c0.4,0.4,0.4,1,0,1.4
		C23.5,23.9,23.3,24,23,24z"/>
</g>
</svg>
