<?xml version="1.0" encoding="utf-8"?>
<!-- Generator: Adobe Illustrator 23.0.3, SVG Export Plug-In . SVG Version: 6.00 Build 0)  -->
<svg version="1.1" id="Ebene_1" xmlns="http://www.w3.org/2000/svg" xmlns:xlink="http://www.w3.org/1999/xlink" x="0px" y="0px"
	 viewBox="0 0 24 24" style="enable-background:new 0 0 24 24;" xml:space="preserve">
<g>
	<path d="M12,24c-0.1,0-0.3,0-0.4-0.1C11.2,23.8,11,23.4,11,23v-8.6l-3.8,3.8c-0.4,0.4-1,0.4-1.4,0s-0.4-1,0-1.4l4.8-4.8L5.8,7.2
		c-0.4-0.4-0.4-1,0-1.4s1-0.4,1.4,0L11,9.6V1c0-0.4,0.2-0.8,0.6-0.9C12-0.1,12.4,0,12.7,0.3l5.5,5.5c0.4,0.4,0.4,1,0,1.4L13.4,12
		l4.8,4.8c0.4,0.4,0.4,1,0,1.4l-5.5,5.5C12.5,23.9,12.3,24,12,24z M13,14.4v6.2l3.1-3.1L13,14.4z M13,3.4v6.2l3.1-3.1L13,3.4z"/>
</g>
</svg>
