<?xml version="1.0" encoding="utf-8"?>
<!-- Generator: Adobe Illustrator 23.0.3, SVG Export Plug-In . SVG Version: 6.00 Build 0)  -->
<svg version="1.1" id="Ebene_1" xmlns="http://www.w3.org/2000/svg" xmlns:xlink="http://www.w3.org/1999/xlink" x="0px" y="0px"
	 viewBox="0 0 24 24" style="enable-background:new 0 0 24 24;" xml:space="preserve">
<g>
	<path d="M14,13H6c-0.6,0-1-0.4-1-1V4c0-0.6,0.4-1,1-1h8c2.8,0,5,2.2,5,5S16.8,13,14,13z M7,11h7c1.7,0,3-1.3,3-3s-1.3-3-3-3H7V11z"
		/>
</g>
<g>
	<path d="M15,21H6c-0.6,0-1-0.4-1-1v-8c0-0.6,0.4-1,1-1h9c2.8,0,5,2.2,5,5S17.8,21,15,21z M7,19h8c1.7,0,3-1.3,3-3s-1.3-3-3-3H7V19z
		"/>
</g>
</svg>
