<?xml version="1.0" encoding="utf-8"?>
<!-- Generator: Adobe Illustrator 23.0.3, SVG Export Plug-In . SVG Version: 6.00 Build 0)  -->
<svg version="1.1" id="Ebene_1" xmlns="http://www.w3.org/2000/svg" xmlns:xlink="http://www.w3.org/1999/xlink" x="0px" y="0px"
	 viewBox="0 0 24 24" style="enable-background:new 0 0 24 24;" xml:space="preserve">
<g>
	<path d="M19,22c-0.2,0-0.4-0.1-0.6-0.2L12,17.2l-6.4,4.6c-0.3,0.2-0.7,0.2-1,0.1S4,21.4,4,21V5c0-1.7,1.3-3,3-3h10c1.7,0,3,1.3,3,3
		v16c0,0.4-0.2,0.7-0.5,0.9C19.3,22,19.2,22,19,22z M12,15c0.2,0,0.4,0.1,0.6,0.2l5.4,3.9V5c0-0.6-0.4-1-1-1H7C6.4,4,6,4.4,6,5v14.1
		l5.4-3.9C11.6,15.1,11.8,15,12,15z"/>
</g>
</svg>
