<?xml version="1.0" encoding="utf-8"?>
<!-- Generator: Adobe Illustrator 23.0.3, SVG Export Plug-In . SVG Version: 6.00 Build 0)  -->
<svg version="1.1" id="Ebene_1" xmlns="http://www.w3.org/2000/svg" xmlns:xlink="http://www.w3.org/1999/xlink" x="0px" y="0px"
	 viewBox="0 0 24 24" style="enable-background:new 0 0 24 24;" xml:space="preserve">
<g>
	<path d="M23,24c-0.3,0-0.5-0.1-0.7-0.3l-22-22c-0.4-0.4-0.4-1,0-1.4s1-0.4,1.4,0l22,22c0.4,0.4,0.4,1,0,1.4
		C23.5,23.9,23.3,24,23,24z"/>
</g>
<g>
	<path d="M21,22H3c-1.7,0-3-1.3-3-3V8c0-1.7,1.3-3,3-3h3c0.6,0,1,0.4,1,1S6.6,7,6,7H3C2.4,7,2,7.4,2,8v11c0,0.6,0.4,1,1,1h18
		c0.6,0,1,0.4,1,1S21.6,22,21,22z M23,18.3c-0.6,0-1-0.4-1-1V8c0-0.6-0.4-1-1-1h-4c-0.3,0-0.6-0.2-0.8-0.4L14.5,4H9C8.4,4,8,3.6,8,3
		s0.4-1,1-1h6c0.3,0,0.6,0.2,0.8,0.4L17.5,5H21c1.7,0,3,1.3,3,3v9.3C24,17.9,23.6,18.3,23,18.3z M12,18c-1,0-2-0.3-2.8-0.9
		c-1.1-0.8-1.8-1.9-2.1-3.2c-0.2-1.3,0-2.6,0.8-3.7c0.4-0.5,0.8-1,1.3-1.3s1.1-0.2,1.4,0.3c0.3,0.5,0.2,1.1-0.3,1.4
		C10,10.8,9.7,11,9.5,11.3C9.1,12,8.9,12.8,9,13.6s0.6,1.5,1.3,1.9c0.7,0.5,1.5,0.6,2.2,0.5c0.8-0.1,1.5-0.6,1.9-1.3
		c0.3-0.5,0.9-0.6,1.4-0.3s0.6,0.9,0.3,1.4c-0.8,1.1-1.9,1.8-3.2,2.1C12.6,18,12.3,18,12,18z"/>
</g>
</svg>
