<?xml version="1.0" encoding="utf-8"?>
<!-- Generator: Adobe Illustrator 23.0.3, SVG Export Plug-In . SVG Version: 6.00 Build 0)  -->
<svg version="1.1" id="Ebene_1" xmlns="http://www.w3.org/2000/svg" xmlns:xlink="http://www.w3.org/1999/xlink" x="0px" y="0px"
	 viewBox="0 0 24 24" style="enable-background:new 0 0 24 24;" xml:space="preserve">
<g>
	<path d="M5.9,21c-0.5,0-0.9-0.3-1-0.8c-0.3-1.6-1.5-2.8-3.1-3.1C1.3,17,0.9,16.4,1,15.9s0.6-0.9,1.2-0.8c2.4,0.5,4.2,2.3,4.7,4.7
		C7,20.3,6.6,20.9,6.1,21C6,21,6,21,5.9,21z M9.9,21c-0.5,0-0.9-0.4-1-0.9c-0.4-3.7-3.3-6.7-7.1-7.1c-0.5,0-0.9-0.5-0.8-1.1
		C1.1,11.4,1.6,11,2.1,11c4.7,0.5,8.3,4.2,8.8,8.8c0.1,0.5-0.3,1-0.9,1.1C10,21,10,21,9.9,21z M20,21h-6c-0.6,0-1-0.4-1-1s0.4-1,1-1
		h6c0.6,0,1-0.4,1-1V6c0-0.6-0.4-1-1-1H4C3.4,5,3,5.4,3,6v2c0,0.6-0.4,1-1,1S1,8.6,1,8V6c0-1.7,1.3-3,3-3h16c1.7,0,3,1.3,3,3v12
		C23,19.7,21.7,21,20,21z"/>
</g>
<g>
	<path d="M2,21c-0.3,0-0.5-0.1-0.7-0.3c-0.1-0.1-0.2-0.2-0.2-0.3C1,20.3,1,20.1,1,20s0-0.3,0.1-0.4s0.1-0.2,0.2-0.3
		C1.6,19,2,18.9,2.4,19.1c0.1,0,0.2,0.1,0.3,0.2C2.9,19.5,3,19.7,3,20c0,0.1,0,0.3-0.1,0.4s-0.1,0.2-0.2,0.3C2.5,20.9,2.3,21,2,21z"
		/>
</g>
</svg>
