<?xml version="1.0" encoding="utf-8"?>
<!-- Generator: Adobe Illustrator 23.0.3, SVG Export Plug-In . SVG Version: 6.00 Build 0)  -->
<svg version="1.1" id="Ebene_1" xmlns="http://www.w3.org/2000/svg" xmlns:xlink="http://www.w3.org/1999/xlink" x="0px" y="0px"
	 viewBox="0 0 24 24" style="enable-background:new 0 0 24 24;" xml:space="preserve">
<g>
	<path d="M13,18c-0.3,0-0.5-0.1-0.7-0.3c-0.4-0.4-0.4-1,0-1.4l4.3-4.3l-4.3-4.3c-0.4-0.4-0.4-1,0-1.4s1-0.4,1.4,0l5,5
		c0.4,0.4,0.4,1,0,1.4l-5,5C13.5,17.9,13.3,18,13,18z"/>
</g>
<g>
	<path d="M6,18c-0.3,0-0.5-0.1-0.7-0.3c-0.4-0.4-0.4-1,0-1.4L9.6,12L5.3,7.7c-0.4-0.4-0.4-1,0-1.4s1-0.4,1.4,0l5,5
		c0.4,0.4,0.4,1,0,1.4l-5,5C6.5,17.9,6.3,18,6,18z"/>
</g>
</svg>
