<?xml version="1.0" encoding="utf-8"?>
<!-- Generator: Adobe Illustrator 23.0.3, SVG Export Plug-In . SVG Version: 6.00 Build 0)  -->
<svg version="1.1" id="Ebene_1" xmlns="http://www.w3.org/2000/svg" xmlns:xlink="http://www.w3.org/1999/xlink" x="0px" y="0px"
	 viewBox="0 0 24 24" style="enable-background:new 0 0 24 24;" xml:space="preserve">
<g>
	<path d="M17,12c-0.3,0-0.5-0.1-0.7-0.3L12,7.4l-4.3,4.3c-0.4,0.4-1,0.4-1.4,0s-0.4-1,0-1.4l5-5c0.4-0.4,1-0.4,1.4,0l5,5
		c0.4,0.4,0.4,1,0,1.4C17.5,11.9,17.3,12,17,12z"/>
</g>
<g>
	<path d="M17,19c-0.3,0-0.5-0.1-0.7-0.3L12,14.4l-4.3,4.3c-0.4,0.4-1,0.4-1.4,0s-0.4-1,0-1.4l5-5c0.4-0.4,1-0.4,1.4,0l5,5
		c0.4,0.4,0.4,1,0,1.4C17.5,18.9,17.3,19,17,19z"/>
</g>
</svg>
