<?xml version="1.0" encoding="utf-8"?>
<!-- Generator: Adobe Illustrator 23.0.3, SVG Export Plug-In . SVG Version: 6.00 Build 0)  -->
<svg version="1.1" id="Ebene_1" xmlns="http://www.w3.org/2000/svg" xmlns:xlink="http://www.w3.org/1999/xlink" x="0px" y="0px"
	 viewBox="0 0 24 24" style="enable-background:new 0 0 24 24;" xml:space="preserve">
<g>
	<path d="M12,19c-0.3,0-0.5-0.1-0.7-0.3l-5-5c-0.4-0.4-0.4-1,0-1.4s1-0.4,1.4,0l4.3,4.3l4.3-4.3c0.4-0.4,1-0.4,1.4,0s0.4,1,0,1.4
		l-5,5C12.5,18.9,12.3,19,12,19z"/>
</g>
<g>
	<path d="M12,12c-0.3,0-0.5-0.1-0.7-0.3l-5-5c-0.4-0.4-0.4-1,0-1.4s1-0.4,1.4,0L12,9.6l4.3-4.3c0.4-0.4,1-0.4,1.4,0s0.4,1,0,1.4
		l-5,5C12.5,11.9,12.3,12,12,12z"/>
</g>
</svg>
