<?xml version="1.0" encoding="utf-8"?>
<!-- Generator: Adobe Illustrator 23.0.3, SVG Export Plug-In . SVG Version: 6.00 Build 0)  -->
<svg version="1.1" id="Ebene_1" xmlns="http://www.w3.org/2000/svg" xmlns:xlink="http://www.w3.org/1999/xlink" x="0px" y="0px"
	 viewBox="0 0 24 24" style="enable-background:new 0 0 24 24;" xml:space="preserve">
<g>
	<path d="M12,23C5.9,23,1,18.1,1,12S5.9,1,12,1s11,4.9,11,11S18.1,23,12,23z M12,3c-5,0-9,4-9,9s4,9,9,9s9-4,9-9S17,3,12,3z"/>
</g>
<g>
	<path d="M12,17c-2.8,0-5-2.2-5-5s2.2-5,5-5s5,2.2,5,5S14.8,17,12,17z M12,9c-1.7,0-3,1.3-3,3s1.3,3,3,3s3-1.3,3-3S13.7,9,12,9z"/>
</g>
<g>
	<path d="M21.2,9H12c-0.6,0-1-0.4-1-1s0.4-1,1-1h9.2c0.6,0,1,0.4,1,1S21.7,9,21.2,9z"/>
</g>
<g>
	<path d="M8.5,15c-0.3,0-0.7-0.2-0.9-0.5L3.1,6.6C2.8,6.1,3,5.5,3.4,5.2c0.5-0.3,1.1-0.1,1.4,0.4l4.6,7.9C9.7,14,9.5,14.6,9,14.9
		C8.9,15,8.7,15,8.5,15z"/>
</g>
<g>
	<path d="M10.9,22.9c-0.2,0-0.3,0-0.5-0.1c-0.5-0.3-0.6-0.9-0.4-1.4l4.6-7.9c0.3-0.5,0.9-0.6,1.4-0.4c0.5,0.3,0.6,0.9,0.4,1.4
		l-4.6,7.9C11.6,22.8,11.2,22.9,10.9,22.9z"/>
</g>
</svg>
