<?xml version="1.0" encoding="utf-8"?>
<!-- Generator: Adobe Illustrator 23.0.3, SVG Export Plug-In . SVG Version: 6.00 Build 0)  -->
<svg version="1.1" id="Ebene_1" xmlns="http://www.w3.org/2000/svg" xmlns:xlink="http://www.w3.org/1999/xlink" x="0px" y="0px"
	 viewBox="0 0 24 24" style="enable-background:new 0 0 24 24;" xml:space="preserve">
<g>
	<path d="M16,22c-0.6,0-1-0.4-1-1v-8c0-0.6,0.4-1,1-1s1,0.4,1,1v8C17,21.6,16.6,22,16,22z"/>
</g>
<g>
	<path d="M8,22c-0.6,0-1-0.4-1-1v-8c0-0.6,0.4-1,1-1s1,0.4,1,1v8C9,21.6,8.6,22,8,22z"/>
</g>
<g>
	<path d="M12,24c-0.6,0-1-0.4-1-1v-8c0-0.6,0.4-1,1-1s1,0.4,1,1v8C13,23.6,12.6,24,12,24z"/>
</g>
<g>
	<path d="M20,17.6c-0.4,0-0.8-0.2-0.9-0.6c-0.2-0.5,0-1.1,0.5-1.3c1-0.4,1.7-1.2,2.1-2.2s0.4-2.1-0.1-3.1C21,8.9,19.6,8,18,8h-1.3
		c-0.5,0-0.9-0.3-1-0.8c-1-3.7-4.8-6-8.5-5s-6,4.8-5,8.5c0.4,1.5,1.2,2.8,2.4,3.7c0.4,0.3,0.5,1,0.2,1.4s-1,0.5-1.4,0.2
		c-1.5-1.2-2.6-2.9-3.1-4.8C-1,6.4,1.9,1.5,6.7,0.3c4.6-1.2,9.2,1.4,10.7,5.7H18c2.4,0,4.5,1.4,5.5,3.6c0.6,1.5,0.7,3.1,0.1,4.6
		s-1.7,2.7-3.2,3.3C20.3,17.6,20.1,17.6,20,17.6z"/>
</g>
</svg>
