<?xml version="1.0" encoding="utf-8"?>
<!-- Generator: Adobe Illustrator 23.0.3, SVG Export Plug-In . SVG Version: 6.00 Build 0)  -->
<svg version="1.1" id="Ebene_1" xmlns="http://www.w3.org/2000/svg" xmlns:xlink="http://www.w3.org/1999/xlink" x="0px" y="0px"
	 viewBox="0 0 24 24" style="enable-background:new 0 0 24 24;" xml:space="preserve">
<g>
	<path d="M19,17.9c-0.5,0-0.9-0.3-1-0.8s0.2-1.1,0.8-1.2c2.2-0.4,3.6-2.6,3.1-4.7C21.5,9.3,19.9,8,18,8l0,0h-1.3
		c-0.5,0-0.9-0.3-1-0.8c-1-3.7-4.8-6-8.5-5C5.4,2.7,3.9,3.8,3,5.4c-1,1.7-1.3,3.5-0.8,5.4s1.7,3.4,3.4,4.4C6.1,15.4,6.3,16,6,16.5
		s-0.9,0.7-1.4,0.4c-2.2-1.2-3.7-3.2-4.4-5.6c-0.6-2.3-0.3-4.8,1-6.8C2.4,2.4,4.4,1,6.7,0.4c4.5-1.2,9.2,1.4,10.7,5.7H18l0,0
		c2.8,0,5.3,2,5.9,4.8c0.7,3.2-1.4,6.4-4.7,7.1C19.1,17.9,19.1,17.9,19,17.9z"/>
</g>
<g>
	<path d="M11,24c-0.2,0-0.4-0.1-0.6-0.2c-0.5-0.3-0.6-0.9-0.3-1.4l3-4.4H9c-0.4,0-0.7-0.2-0.9-0.5s-0.2-0.7,0-1l4-6
		c0.3-0.5,0.9-0.6,1.4-0.3s0.6,0.9,0.3,1.4l-3,4.4H15c0.4,0,0.7,0.2,0.9,0.5c0.2,0.3,0.2,0.7,0,1l-4,6C11.6,23.8,11.3,24,11,24z"/>
</g>
</svg>
