<?xml version="1.0" encoding="utf-8"?>
<!-- Generator: Adobe Illustrator 23.0.3, SVG Export Plug-In . SVG Version: 6.00 Build 0)  -->
<svg version="1.1" id="Ebene_1" xmlns="http://www.w3.org/2000/svg" xmlns:xlink="http://www.w3.org/1999/xlink" x="0px" y="0px"
	 viewBox="0 0 24 24" style="enable-background:new 0 0 24 24;" xml:space="preserve">
<g>
	<path d="M20,18.6c-0.4,0-0.8-0.2-0.9-0.6c-0.2-0.5,0-1.1,0.5-1.3c1-0.4,1.7-1.2,2.1-2.2s0.4-2.1-0.1-3.1C21,9.9,19.6,9,18,9h-1.3
		c-0.5,0-0.9-0.3-1-0.8c-1-3.7-4.8-6-8.5-5s-6,4.8-5,8.5c0.4,1.5,1.2,2.8,2.4,3.7c0.4,0.3,0.5,1,0.2,1.4s-1,0.5-1.4,0.2
		c-1.5-1.2-2.6-2.9-3.1-4.8C-1,7.4,1.9,2.5,6.7,1.3c4.6-1.2,9.2,1.4,10.7,5.7H18c2.4,0,4.5,1.4,5.5,3.6c0.6,1.5,0.7,3.1,0.1,4.6
		s-1.7,2.7-3.2,3.3C20.3,18.6,20.1,18.6,20,18.6z"/>
</g>
<g>
	<path d="M8,17c-0.3,0-0.5-0.1-0.7-0.3C7.1,16.5,7,16.3,7,16c0-0.1,0-0.3,0.1-0.4c0.1-0.1,0.1-0.2,0.2-0.3C7.6,15,8,14.9,8.4,15.1
		c0.1,0,0.2,0.1,0.3,0.2c0.1,0.1,0.2,0.2,0.2,0.3C9,15.7,9,15.9,9,16c0,0.3-0.1,0.5-0.3,0.7C8.5,16.9,8.3,17,8,17z"/>
</g>
<g>
	<path d="M8,21c-0.3,0-0.5-0.1-0.7-0.3c-0.1-0.1-0.2-0.2-0.2-0.3C7,20.3,7,20.1,7,20c0-0.3,0.1-0.5,0.3-0.7c0.4-0.4,1-0.4,1.4,0
		C8.9,19.5,9,19.7,9,20c0,0.1,0,0.3-0.1,0.4s-0.1,0.2-0.2,0.3C8.5,20.9,8.3,21,8,21z"/>
</g>
<g>
	<path d="M12,19c-0.3,0-0.5-0.1-0.7-0.3C11.1,18.5,11,18.3,11,18c0-0.1,0-0.3,0.1-0.4s0.1-0.2,0.2-0.3l0.1-0.1
		c0.1,0,0.1-0.1,0.2-0.1c0.1,0,0.1,0,0.2-0.1c0.3-0.1,0.7,0,0.9,0.3c0.1,0.1,0.2,0.2,0.2,0.3C13,17.7,13,17.9,13,18
		c0,0.3-0.1,0.5-0.3,0.7C12.5,18.9,12.3,19,12,19z"/>
</g>
<g>
	<path d="M12,23c-0.1,0-0.3,0-0.4-0.1c-0.1,0-0.2-0.1-0.3-0.2C11.1,22.5,11,22.3,11,22c0-0.1,0-0.3,0.1-0.4s0.1-0.2,0.2-0.3
		c0.4-0.4,1-0.4,1.4,0c0.2,0.2,0.3,0.5,0.3,0.7c0,0.3-0.1,0.5-0.3,0.7C12.5,22.9,12.3,23,12,23z"/>
</g>
<g>
	<path d="M16,17c-0.3,0-0.5-0.1-0.7-0.3C15.1,16.5,15,16.3,15,16c0-0.1,0-0.3,0.1-0.4c0-0.1,0.1-0.2,0.2-0.3
		c0.2-0.2,0.6-0.3,0.9-0.3c0.1,0,0.1,0,0.2,0.1c0.1,0,0.1,0,0.2,0.1c0,0,0.1,0.1,0.2,0.1c0.1,0.1,0.2,0.2,0.2,0.3s0.1,0.2,0.1,0.4
		c0,0.3-0.1,0.5-0.3,0.7C16.5,16.9,16.3,17,16,17z"/>
</g>
<g>
	<path d="M16,21c-0.3,0-0.5-0.1-0.7-0.3c-0.1-0.1-0.2-0.2-0.2-0.3c0-0.1-0.1-0.2-0.1-0.4c0-0.3,0.1-0.5,0.3-0.7c0.4-0.4,1-0.4,1.4,0
		c0.2,0.2,0.3,0.5,0.3,0.7c0,0.1,0,0.3-0.1,0.4s-0.1,0.2-0.2,0.3C16.5,20.9,16.3,21,16,21z"/>
</g>
</svg>
