<?xml version="1.0" encoding="utf-8"?>
<!-- Generator: Adobe Illustrator 23.0.3, SVG Export Plug-In . SVG Version: 6.00 Build 0)  -->
<svg version="1.1" id="Ebene_1" xmlns="http://www.w3.org/2000/svg" xmlns:xlink="http://www.w3.org/1999/xlink" x="0px" y="0px"
	 viewBox="0 0 24 24" style="enable-background:new 0 0 24 24;" xml:space="preserve">
<g>
	<path d="M8.9,21c-3.3,0-6.3-1.8-7.9-4.6c-1.2-2.1-1.4-4.5-0.8-6.8s2.2-4.2,4.3-5.4C5,3.9,5.6,4,5.9,4.5C6.1,5,6,5.6,5.5,5.9
		c-1.6,0.9-2.8,2.4-3.3,4.2s-0.3,3.7,0.6,5.3C4,17.7,6.4,19.1,9,19h9c0.5,0,0.9-0.1,1.4-0.2c0.5-0.2,1.1,0.1,1.3,0.6
		c0.2,0.5-0.1,1.1-0.6,1.3c-0.7,0.2-1.3,0.4-2,0.4H9C9,21,8.9,21,8.9,21z M22.6,18c-0.1,0-0.3,0-0.4-0.1c-0.5-0.2-0.7-0.8-0.5-1.3
		c0.9-2-0.1-4.4-2.1-5.2c-0.5-0.2-1-0.3-1.6-0.3l0,0h-1.3c-0.5,0-0.9-0.3-1-0.8C15,7.4,12.6,5.3,9.6,5C9,5,8.6,4.5,8.7,3.9
		c0-0.6,0.5-1,1.1-0.9c3.5,0.3,6.5,2.7,7.7,6H18c0.8,0,1.6,0.2,2.3,0.5c3,1.3,4.5,4.8,3.2,7.9C23.4,17.7,23,18,22.6,18z"/>
</g>
<g>
	<path d="M23,24c-0.3,0-0.5-0.1-0.7-0.3l-22-22c-0.4-0.4-0.4-1,0-1.4s1-0.4,1.4,0l22,22c0.4,0.4,0.4,1,0,1.4
		C23.5,23.9,23.3,24,23,24z"/>
</g>
</svg>
