<?xml version="1.0" encoding="utf-8"?>
<!-- Generator: Adobe Illustrator 23.0.3, SVG Export Plug-In . SVG Version: 6.00 Build 0)  -->
<svg version="1.1" id="Ebene_1" xmlns="http://www.w3.org/2000/svg" xmlns:xlink="http://www.w3.org/1999/xlink" x="0px" y="0px"
	 viewBox="0 0 24 24" style="enable-background:new 0 0 24 24;" xml:space="preserve">
<g>
	<path d="M9,21c-4.1,0-7.7-2.8-8.7-6.8c-0.6-2.3-0.3-4.8,1-6.8c1.2-2.1,3.2-3.5,5.5-4.1s4.8-0.3,6.8,1c1.8,1,3.2,2.7,3.9,4.7H18
		c3.3,0,6,2.7,6,6s-2.7,6-6,6H9L9,21z M9,5C8.4,5,7.8,5.1,7.2,5.2C5.4,5.7,3.9,6.8,3,8.4s-1.2,3.5-0.7,5.3C3,16.8,5.8,19,9,19l0,0h9
		c2.2,0,4-1.8,4-4s-1.8-4-4-4h-1.3c-0.5,0-0.9-0.3-1-0.8C15,7.1,12.1,5,9,5z"/>
</g>
</svg>
