<?xml version="1.0" encoding="utf-8"?>
<!-- Generator: Adobe Illustrator 23.0.3, SVG Export Plug-In . SVG Version: 6.00 Build 0)  -->
<svg version="1.1" id="Ebene_1" xmlns="http://www.w3.org/2000/svg" xmlns:xlink="http://www.w3.org/1999/xlink" x="0px" y="0px"
	 viewBox="0 0 24 24" style="enable-background:new 0 0 24 24;" xml:space="preserve">
<g>
	<path d="M12,23c-0.2,0-0.4-0.1-0.5-0.2l-10-6.5C1.2,16.2,1,15.8,1,15.5v-7c0-0.3,0.2-0.7,0.5-0.8l10-6.5c0.3-0.2,0.8-0.2,1.1,0
		l10,6.5C22.8,7.8,23,8.2,23,8.5v7c0,0.3-0.2,0.7-0.5,0.8l-10,6.5C12.4,22.9,12.2,23,12,23z M3,15l9,5.9l9-5.9V9l-9-5.8L3,9V15z"/>
</g>
<g>
	<path d="M12,23c-0.6,0-1-0.4-1-1v-6.5c0-0.6,0.4-1,1-1s1,0.4,1,1V22C13,22.6,12.6,23,12,23z"/>
</g>
<g>
	<path d="M12,16.5c-0.2,0-0.4-0.1-0.6-0.2l-10-7C1,9,0.9,8.4,1.2,7.9s0.9-0.6,1.4-0.2l9.4,6.6l9.4-6.6c0.5-0.3,1.1-0.2,1.4,0.2
		C23.1,8.4,23,9,22.6,9.3l-10,7C12.4,16.4,12.2,16.5,12,16.5z"/>
</g>
<g>
	<path d="M22,16.5c-0.2,0-0.4-0.1-0.6-0.2L12,9.7l-9.4,6.6c-0.5,0.3-1.1,0.2-1.4-0.2C0.9,15.6,1,15,1.4,14.7l10-7
		c0.3-0.2,0.8-0.2,1.1,0l10,7c0.5,0.3,0.6,0.9,0.2,1.4C22.6,16.4,22.3,16.5,22,16.5z"/>
</g>
<g>
	<path d="M12,9.5c-0.6,0-1-0.4-1-1V2c0-0.6,0.4-1,1-1s1,0.4,1,1v6.5C13,9.1,12.6,9.5,12,9.5z"/>
</g>
</svg>
