<?xml version="1.0" encoding="utf-8"?>
<!-- Generator: Adobe Illustrator 23.0.3, SVG Export Plug-In . SVG Version: 6.00 Build 0)  -->
<svg version="1.1" id="Ebene_1" xmlns="http://www.w3.org/2000/svg" xmlns:xlink="http://www.w3.org/1999/xlink" x="0px" y="0px"
	 viewBox="0 0 24 24" style="enable-background:new 0 0 24 24;" xml:space="preserve">
<g>
	<path d="M19,17h-1c-0.6,0-1-0.4-1-1s0.4-1,1-1h1c1.7,0,3-1.3,3-3s-1.3-3-3-3h-1c-0.6,0-1-0.4-1-1s0.4-1,1-1h1c2.8,0,5,2.2,5,5
		S21.8,17,19,17z"/>
</g>
<g>
	<path d="M14,22H6c-2.8,0-5-2.2-5-5V8c0-0.6,0.4-1,1-1h16c0.6,0,1,0.4,1,1v9C19,19.8,16.8,22,14,22z M3,9v8c0,1.7,1.3,3,3,3h8
		c1.7,0,3-1.3,3-3V9H3z"/>
</g>
<g>
	<path d="M6,5C5.4,5,5,4.6,5,4V1c0-0.6,0.4-1,1-1s1,0.4,1,1v3C7,4.6,6.6,5,6,5z"/>
</g>
<g>
	<path d="M10,5C9.4,5,9,4.6,9,4V1c0-0.6,0.4-1,1-1s1,0.4,1,1v3C11,4.6,10.6,5,10,5z"/>
</g>
<g>
	<path d="M14,5c-0.6,0-1-0.4-1-1V1c0-0.6,0.4-1,1-1s1,0.4,1,1v3C15,4.6,14.6,5,14,5z"/>
</g>
</svg>
