<?xml version="1.0" encoding="utf-8"?>
<!-- Generator: Adobe Illustrator 23.0.3, SVG Export Plug-In . SVG Version: 6.00 Build 0)  -->
<svg version="1.1" id="Ebene_1" xmlns="http://www.w3.org/2000/svg" xmlns:xlink="http://www.w3.org/1999/xlink" x="0px" y="0px"
	 viewBox="0 0 24 24" style="enable-background:new 0 0 24 24;" xml:space="preserve">
<g>
	<path d="M12,23C5.9,23,1,18.1,1,12S5.9,1,12,1s11,4.9,11,11S18.1,23,12,23z M12,3c-5,0-9,4-9,9s4,9,9,9s9-4,9-9S17,3,12,3z"/>
</g>
<g>
	<path d="M7.8,17.2c-0.3,0-0.5-0.1-0.7-0.3c-0.3-0.3-0.4-0.7-0.2-1L9,9.5C9,9.3,9.3,9,9.6,8.9L16,6.8c0.4-0.1,0.8,0,1,0.2
		c0.3,0.3,0.4,0.7,0.2,1l-2.1,6.4c-0.1,0.3-0.3,0.5-0.6,0.6l-6.4,2.1C8,17.2,7.9,17.2,7.8,17.2z M10.7,10.7l-1.3,4l4-1.3l1.3-4
		L10.7,10.7z"/>
</g>
</svg>
