<?xml version="1.0" encoding="utf-8"?>
<!-- Generator: Adobe Illustrator 23.0.3, SVG Export Plug-In . SVG Version: 6.00 Build 0)  -->
<svg version="1.1" id="Ebene_1" xmlns="http://www.w3.org/2000/svg" xmlns:xlink="http://www.w3.org/1999/xlink" x="0px" y="0px"
	 viewBox="0 0 24 24" style="enable-background:new 0 0 24 24;" xml:space="preserve">
<g>
	<path d="M20,10c-0.3,0-0.5-0.1-0.7-0.3L15,5.4l-4.3,4.3c-0.4,0.4-1,0.4-1.4,0s-0.4-1,0-1.4l5-5c0.4-0.4,1-0.4,1.4,0l5,5
		c0.4,0.4,0.4,1,0,1.4C20.5,9.9,20.3,10,20,10z"/>
</g>
<g>
	<path d="M11,21H4c-0.6,0-1-0.4-1-1s0.4-1,1-1h7c1.7,0,3-1.3,3-3V4c0-0.6,0.4-1,1-1s1,0.4,1,1v12C16,18.8,13.8,21,11,21z"/>
</g>
</svg>
