<?xml version="1.0" encoding="utf-8"?>
<!-- Generator: Adobe Illustrator 23.0.3, SVG Export Plug-In . SVG Version: 6.00 Build 0)  -->
<svg version="1.1" id="Ebene_1" xmlns="http://www.w3.org/2000/svg" xmlns:xlink="http://www.w3.org/1999/xlink" x="0px" y="0px"
	 viewBox="0 0 24 24" style="enable-background:new 0 0 24 24;" xml:space="preserve">
<g>
	<path d="M9,21c-0.3,0-0.5-0.1-0.7-0.3l-5-5c-0.4-0.4-0.4-1,0-1.4l5-5c0.4-0.4,1-0.4,1.4,0s0.4,1,0,1.4L5.4,15l4.3,4.3
		c0.4,0.4,0.4,1,0,1.4C9.5,20.9,9.3,21,9,21z"/>
</g>
<g>
	<path d="M16,16H4c-0.6,0-1-0.4-1-1s0.4-1,1-1h12c1.7,0,3-1.3,3-3V4c0-0.6,0.4-1,1-1s1,0.4,1,1v7C21,13.8,18.8,16,16,16z"/>
</g>
</svg>
