<?xml version="1.0" encoding="utf-8"?>
<!-- Generator: Adobe Illustrator 23.0.3, SVG Export Plug-In . SVG Version: 6.00 Build 0)  -->
<svg version="1.1" id="Ebene_1" xmlns="http://www.w3.org/2000/svg" xmlns:xlink="http://www.w3.org/1999/xlink" x="0px" y="0px"
	 viewBox="0 0 24 24" style="enable-background:new 0 0 24 24;" xml:space="preserve">
<g>
	<path d="M9,21c-0.3,0-0.5-0.1-0.7-0.3l-5-5c-0.4-0.4-0.4-1,0-1.4s1-0.4,1.4,0L9,18.6l4.3-4.3c0.4-0.4,1-0.4,1.4,0s0.4,1,0,1.4l-5,5
		C9.5,20.9,9.3,21,9,21z"/>
</g>
<g>
	<path d="M9,21c-0.6,0-1-0.4-1-1V8c0-2.8,2.2-5,5-5h7c0.6,0,1,0.4,1,1s-0.4,1-1,1h-7c-1.7,0-3,1.3-3,3v12C10,20.6,9.6,21,9,21z"/>
</g>
</svg>
