<?xml version="1.0" encoding="utf-8"?>
<!-- Generator: Adobe Illustrator 23.0.3, SVG Export Plug-In . SVG Version: 6.00 Build 0)  -->
<svg version="1.1" id="Ebene_1" xmlns="http://www.w3.org/2000/svg" xmlns:xlink="http://www.w3.org/1999/xlink" x="0px" y="0px"
	 viewBox="0 0 24 24" style="enable-background:new 0 0 24 24;" xml:space="preserve">
<g>
	<path d="M15,21c-0.3,0-0.5-0.1-0.7-0.3l-5-5c-0.4-0.4-0.4-1,0-1.4s1-0.4,1.4,0l4.3,4.3l4.3-4.3c0.4-0.4,1-0.4,1.4,0s0.4,1,0,1.4
		l-5,5C15.5,20.9,15.3,21,15,21z"/>
</g>
<g>
	<path d="M15,21c-0.6,0-1-0.4-1-1V8c0-1.7-1.3-3-3-3H4C3.4,5,3,4.6,3,4s0.4-1,1-1h7c2.8,0,5,2.2,5,5v12C16,20.6,15.6,21,15,21z"/>
</g>
</svg>
