<?xml version="1.0" encoding="utf-8"?>
<!-- Generator: Adobe Illustrator 23.0.3, SVG Export Plug-In . SVG Version: 6.00 Build 0)  -->
<svg version="1.1" id="Ebene_1" xmlns="http://www.w3.org/2000/svg" xmlns:xlink="http://www.w3.org/1999/xlink" x="0px" y="0px"
	 viewBox="0 0 24 24" style="enable-background:new 0 0 24 24;" xml:space="preserve">
<g>
	<path d="M9,15c-0.3,0-0.5-0.1-0.7-0.3l-5-5c-0.4-0.4-0.4-1,0-1.4l5-5c0.4-0.4,1-0.4,1.4,0s0.4,1,0,1.4L5.4,9l4.3,4.3
		c0.4,0.4,0.4,1,0,1.4C9.5,14.9,9.3,15,9,15z"/>
</g>
<g>
	<path d="M20,21c-0.6,0-1-0.4-1-1v-7c0-1.7-1.3-3-3-3H4c-0.6,0-1-0.4-1-1s0.4-1,1-1h12c2.8,0,5,2.2,5,5v7C21,20.6,20.6,21,20,21z"/>
</g>
</svg>
