<?xml version="1.0" encoding="utf-8"?>
<!-- Generator: Adobe Illustrator 23.0.3, SVG Export Plug-In . SVG Version: 6.00 Build 0)  -->
<svg version="1.1" id="Ebene_1" xmlns="http://www.w3.org/2000/svg" xmlns:xlink="http://www.w3.org/1999/xlink" x="0px" y="0px"
	 viewBox="0 0 24 24" style="enable-background:new 0 0 24 24;" xml:space="preserve">
<g>
	<path d="M14,10c-0.3,0-0.5-0.1-0.7-0.3L9,5.4L4.7,9.7c-0.4,0.4-1,0.4-1.4,0s-0.4-1,0-1.4l5-5c0.4-0.4,1-0.4,1.4,0l5,5
		c0.4,0.4,0.4,1,0,1.4C14.5,9.9,14.3,10,14,10z"/>
</g>
<g>
	<path d="M20,21h-7c-2.8,0-5-2.2-5-5V4c0-0.6,0.4-1,1-1s1,0.4,1,1v12c0,1.7,1.3,3,3,3h7c0.6,0,1,0.4,1,1S20.6,21,20,21z"/>
</g>
</svg>
