<?xml version="1.0" encoding="utf-8"?>
<!-- Generator: Adobe Illustrator 23.0.3, SVG Export Plug-In . SVG Version: 6.00 Build 0)  -->
<svg version="1.1" id="Ebene_1" xmlns="http://www.w3.org/2000/svg" xmlns:xlink="http://www.w3.org/1999/xlink" x="0px" y="0px"
	 viewBox="0 0 24 24" style="enable-background:new 0 0 24 24;" xml:space="preserve">
<g>
	<path d="M15,15c-0.3,0-0.5-0.1-0.7-0.3c-0.4-0.4-0.4-1,0-1.4L18.6,9l-4.3-4.3c-0.4-0.4-0.4-1,0-1.4s1-0.4,1.4,0l5,5
		c0.4,0.4,0.4,1,0,1.4l-5,5C15.5,14.9,15.3,15,15,15z"/>
</g>
<g>
	<path d="M4,21c-0.6,0-1-0.4-1-1v-7c0-2.8,2.2-5,5-5h12c0.6,0,1,0.4,1,1s-0.4,1-1,1H8c-1.7,0-3,1.3-3,3v7C5,20.6,4.6,21,4,21z"/>
</g>
</svg>
