<?xml version="1.0" encoding="utf-8"?>
<!-- Generator: Adobe Illustrator 23.0.3, SVG Export Plug-In . SVG Version: 6.00 Build 0)  -->
<svg version="1.1" id="Ebene_1" xmlns="http://www.w3.org/2000/svg" xmlns:xlink="http://www.w3.org/1999/xlink" x="0px" y="0px"
	 viewBox="0 0 24 24" style="enable-background:new 0 0 24 24;" xml:space="preserve">
<g>
	<path d="M15,21c-0.3,0-0.5-0.1-0.7-0.3c-0.4-0.4-0.4-1,0-1.4l4.3-4.3l-4.3-4.3c-0.4-0.4-0.4-1,0-1.4s1-0.4,1.4,0l5,5
		c0.4,0.4,0.4,1,0,1.4l-5,5C15.5,20.9,15.3,21,15,21z"/>
</g>
<g>
	<path d="M20,16H8c-2.8,0-5-2.2-5-5V4c0-0.6,0.4-1,1-1s1,0.4,1,1v7c0,1.7,1.3,3,3,3h12c0.6,0,1,0.4,1,1S20.6,16,20,16z"/>
</g>
</svg>
