<?xml version="1.0" encoding="utf-8"?>
<!-- Generator: Adobe Illustrator 23.0.3, SVG Export Plug-In . SVG Version: 6.00 Build 0)  -->
<svg version="1.1" id="Ebene_1" xmlns="http://www.w3.org/2000/svg" xmlns:xlink="http://www.w3.org/1999/xlink" x="0px" y="0px"
	 viewBox="0 0 24 24" style="enable-background:new 0 0 24 24;" xml:space="preserve">
<g>
	<path d="M23,19H8c-1.7,0-3-1.3-3-3L5.1,1c0-0.5,0.5-1,1-1l0,0c0.6,0,1,0.5,1,1L7,16c0,0.5,0.4,1,1,1h15c0.6,0,1,0.4,1,1
		S23.6,19,23,19z"/>
</g>
<g>
	<path d="M18,24c-0.6,0-1-0.4-1-1V8c0-0.6-0.4-1-1-1L1,7.1l0,0c-0.5,0-1-0.4-1-1s0.4-1,1-1L16,5c1.7,0,3,1.3,3,3v15
		C19,23.6,18.6,24,18,24z"/>
</g>
</svg>
