<?xml version="1.0" encoding="utf-8"?>
<!-- Generator: Adobe Illustrator 23.0.3, SVG Export Plug-In . SVG Version: 6.00 Build 0)  -->
<svg version="1.1" id="Ebene_1" xmlns="http://www.w3.org/2000/svg" xmlns:xlink="http://www.w3.org/1999/xlink" x="0px" y="0px"
	 viewBox="0 0 24 24" style="enable-background:new 0 0 24 24;" xml:space="preserve">
<g>
	<path d="M12,9C7.2,9,2,7.7,2,5s5.2-4,10-4s10,1.3,10,4S16.8,9,12,9z M12,3C6.8,3,4,4.5,4,5s2.8,2,8,2s8-1.5,8-2S17.2,3,12,3z"/>
</g>
<g>
	<path d="M12,16c-4.8,0-10-1.3-10-4c0-0.6,0.4-1,1-1s1,0.4,1,1c0,0.5,2.5,2,8,2s8-1.5,8-2c0-0.6,0.4-1,1-1s1,0.4,1,1
		C22,14.7,16.8,16,12,16z"/>
</g>
<g>
	<path d="M12,23c-4.8,0-10-1.3-10-4V5c0-0.6,0.4-1,1-1s1,0.4,1,1v14c0,0.5,2.5,2,8,2s8-1.5,8-2V5c0-0.6,0.4-1,1-1s1,0.4,1,1v14
		C22,21.7,16.8,23,12,23z"/>
</g>
</svg>
