<?xml version="1.0" encoding="utf-8"?>
<!-- Generator: Adobe Illustrator 23.0.3, SVG Export Plug-In . SVG Version: 6.00 Build 0)  -->
<svg version="1.1" id="Ebene_1" xmlns="http://www.w3.org/2000/svg" xmlns:xlink="http://www.w3.org/1999/xlink" x="0px" y="0px"
	 viewBox="0 0 24 24" style="enable-background:new 0 0 24 24;" xml:space="preserve">
<g>
	<path d="M12,22c-0.3,0-0.5-0.1-0.7-0.3l-4-4c-0.4-0.4-0.4-1,0-1.4s1-0.4,1.4,0l3.3,3.3l3.3-3.3c0.4-0.4,1-0.4,1.4,0s0.4,1,0,1.4
		l-4,4C12.5,21.9,12.3,22,12,22z"/>
</g>
<g>
	<path d="M12,22c-0.6,0-1-0.4-1-1v-9c0-0.6,0.4-1,1-1s1,0.4,1,1v9C13,21.6,12.6,22,12,22z"/>
</g>
<g>
	<path d="M20.9,19.1c-0.3,0-0.6-0.1-0.8-0.4c-0.3-0.5-0.2-1.1,0.2-1.4c0.9-0.6,1.5-1.5,1.6-2.6s-0.1-2.1-0.7-3
		c-0.7-1.1-2-1.7-3.3-1.7l0,0h-1.3c-0.5,0-0.9-0.3-1-0.8c-1-3.7-4.8-6-8.5-5C5.4,4.7,3.9,5.8,3,7.4C2,9,1.7,10.9,2.2,12.7
		c0.3,1.1,0.8,2.1,1.5,2.9C4.1,16,4,16.6,3.6,17s-1,0.3-1.4-0.1c-0.9-1.1-1.6-2.4-2-3.7c-0.6-2.3-0.3-4.7,1-6.8
		c1.2-2.1,3.2-3.5,5.5-4.1C11.3,1.1,16,3.6,17.5,8H18l0,0c2,0,3.8,1,4.9,2.5c0.9,1.3,1.3,2.9,1,4.5s-1.1,3-2.5,3.9
		C21.3,19,21.1,19.1,20.9,19.1z"/>
</g>
</svg>
