<?xml version="1.0" encoding="utf-8"?>
<!-- Generator: Adobe Illustrator 23.0.3, SVG Export Plug-In . SVG Version: 6.00 Build 0)  -->
<svg version="1.1" id="Ebene_1" xmlns="http://www.w3.org/2000/svg" xmlns:xlink="http://www.w3.org/1999/xlink" x="0px" y="0px"
	 viewBox="0 0 24 24" style="enable-background:new 0 0 24 24;" xml:space="preserve">
<g>
	<path d="M21,21h-9c-0.6,0-1-0.4-1-1s0.4-1,1-1h9c0.6,0,1,0.4,1,1S21.6,21,21,21z"/>
</g>
<g>
	<path d="M3,21c-0.3,0-0.5-0.1-0.7-0.3C2,20.5,1.9,20.1,2,19.8l1-4c0-0.2,0.1-0.3,0.3-0.5L15.8,2.8c1.2-1.2,3.2-1.2,4.4,0
		s1.2,3.2,0,4.4L7.7,19.7c-0.1,0.1-0.3,0.2-0.5,0.3l-4,1C3.2,21,3.1,21,3,21z M4.9,16.5l-0.5,2.1l2.1-0.5L18.8,5.8
		c0.4-0.4,0.4-1.1,0-1.6c-0.4-0.4-1.2-0.4-1.6,0l0,0L4.9,16.5z M16.5,3.5L16.5,3.5L16.5,3.5z"/>
</g>
</svg>
