<?xml version="1.0" encoding="utf-8"?>
<!-- Generator: Adobe Illustrator 23.0.3, SVG Export Plug-In . SVG Version: 6.00 Build 0)  -->
<svg version="1.1" id="Ebene_1" xmlns="http://www.w3.org/2000/svg" xmlns:xlink="http://www.w3.org/1999/xlink" x="0px" y="0px"
	 viewBox="0 0 24 24" style="enable-background:new 0 0 24 24;" xml:space="preserve">
<g>
	<path d="M12,21c-7.5,0-11.7-8.2-11.9-8.6c-0.1-0.3-0.1-0.6,0-0.9C0.3,11.2,4.5,3,12,3s11.7,8.2,11.9,8.6c0.1,0.3,0.1,0.6,0,0.9
		C23.7,12.8,19.5,21,12,21z M2.1,12c0.9,1.6,4.5,7,9.9,7s8.9-5.4,9.9-7C21,10.4,17.4,5,12,5S3.1,10.4,2.1,12z"/>
</g>
<g>
	<path d="M12,16c-2.2,0-4-1.8-4-4s1.8-4,4-4s4,1.8,4,4S14.2,16,12,16z M12,10c-1.1,0-2,0.9-2,2s0.9,2,2,2s2-0.9,2-2S13.1,10,12,10z"
		/>
</g>
</svg>
