<?xml version="1.0" encoding="utf-8"?>
<!-- Generator: Adobe Illustrator 23.0.3, SVG Export Plug-In . SVG Version: 6.00 Build 0)  -->
<svg version="1.1" id="Ebene_1" xmlns="http://www.w3.org/2000/svg" xmlns:xlink="http://www.w3.org/1999/xlink" x="0px" y="0px"
	 viewBox="0 0 24 24" style="enable-background:new 0 0 24 24;" xml:space="preserve">
<g>
	<path d="M14,23h-4c-0.6,0-1-0.4-1-1v-7H7c-0.6,0-1-0.4-1-1v-4c0-0.6,0.4-1,1-1h2V7c0-3.3,2.7-6,6-6h3c0.6,0,1,0.4,1,1v4
		c0,0.6-0.4,1-1,1h-3v2h3c0.3,0,0.6,0.1,0.8,0.4S19,9.9,19,10.2l-1,4c-0.1,0.4-0.5,0.8-1,0.8h-2v7C15,22.6,14.6,23,14,23z M11,21h2
		v-7c0-0.6,0.4-1,1-1h2.2l0.5-2H14c-0.6,0-1-0.4-1-1V7c0-1.1,0.9-2,2-2h2V3h-2c-2.2,0-4,1.8-4,4v3c0,0.6-0.4,1-1,1H8v2h2
		c0.6,0,1,0.4,1,1V21z"/>
</g>
</svg>
