<?xml version="1.0" encoding="utf-8"?>
<!-- Generator: Adobe Illustrator 23.0.3, SVG Export Plug-In . SVG Version: 6.00 Build 0)  -->
<svg version="1.1" id="Ebene_1" xmlns="http://www.w3.org/2000/svg" xmlns:xlink="http://www.w3.org/1999/xlink" x="0px" y="0px"
	 viewBox="0 0 24 24" style="enable-background:new 0 0 24 24;" xml:space="preserve">
<g>
	<path d="M13,20c-0.1,0-0.3,0-0.4-0.1C12.2,19.7,12,19.4,12,19V5c0-0.4,0.2-0.7,0.6-0.9c0.3-0.2,0.8-0.1,1.1,0.1l9,7
		c0.2,0.2,0.4,0.5,0.4,0.8s-0.1,0.6-0.4,0.8l-9,7C13.4,19.9,13.2,20,13,20z M14,7v10l6.4-5L14,7z"/>
</g>
<g>
	<path d="M2,20c-0.1,0-0.3,0-0.4-0.1C1.2,19.7,1,19.4,1,19V5c0-0.4,0.2-0.7,0.6-0.9c0.3-0.2,0.7-0.1,1,0.1l9,7
		c0.2,0.2,0.4,0.5,0.4,0.8s-0.1,0.6-0.4,0.8l-9,7C2.4,19.9,2.2,20,2,20z M3,7v10l6.4-5L3,7z"/>
</g>
</svg>
