<?xml version="1.0" encoding="utf-8"?>
<!-- Generator: Adobe Illustrator 23.0.3, SVG Export Plug-In . SVG Version: 6.00 Build 0)  -->
<svg version="1.1" id="Ebene_1" xmlns="http://www.w3.org/2000/svg" xmlns:xlink="http://www.w3.org/1999/xlink" x="0px" y="0px"
	 viewBox="0 0 24 24" style="enable-background:new 0 0 24 24;" xml:space="preserve">
<g>
	<path d="M12,10H8.5C6,10,4,8,4,5.5S6,1,8.5,1H12c0.6,0,1,0.4,1,1v7C13,9.6,12.6,10,12,10z M8.5,3C7.1,3,6,4.1,6,5.5S7.1,8,8.5,8H11
		V3H8.5z"/>
</g>
<g>
	<path d="M15.5,10H12c-0.6,0-1-0.4-1-1V2c0-0.6,0.4-1,1-1h3.5C18,1,20,3,20,5.5S18,10,15.5,10z M13,8h2.5C16.9,8,18,6.9,18,5.5
		S16.9,3,15.5,3H13V8z"/>
</g>
<g>
	<path d="M15.5,17C13,17,11,15,11,12.5S13,8,15.5,8s4.5,2,4.5,4.5S18,17,15.5,17z M15.5,10c-1.4,0-2.5,1.1-2.5,2.5s1.1,2.5,2.5,2.5
		s2.5-1.1,2.5-2.5S16.9,10,15.5,10z"/>
</g>
<g>
	<path d="M8.5,24C6,24,4,22,4,19.5S6,15,8.5,15H12c0.6,0,1,0.4,1,1v3.5C13,22,11,24,8.5,24z M8.5,17C7.1,17,6,18.1,6,19.5
		S7.1,22,8.5,22s2.5-1.1,2.5-2.5V17H8.5z"/>
</g>
<g>
	<path d="M12,17H8.5C6,17,4,15,4,12.5S6,8,8.5,8H12c0.6,0,1,0.4,1,1v7C13,16.6,12.6,17,12,17z M8.5,10C7.1,10,6,11.1,6,12.5
		S7.1,15,8.5,15H11v-5H8.5z"/>
</g>
</svg>
