<?xml version="1.0" encoding="utf-8"?>
<!-- Generator: Adobe Illustrator 23.0.3, SVG Export Plug-In . SVG Version: 6.00 Build 0)  -->
<svg version="1.1" id="Ebene_1" xmlns="http://www.w3.org/2000/svg" xmlns:xlink="http://www.w3.org/1999/xlink" x="0px" y="0px"
	 viewBox="0 0 24 24" style="enable-background:new 0 0 24 24;" xml:space="preserve">
<g>
	<path d="M18,23H6c-1.7,0-3-1.3-3-3V4c0-1.7,1.3-3,3-3h8c0.3,0,0.5,0.1,0.7,0.3l6,6C20.9,7.5,21,7.7,21,8v12C21,21.7,19.7,23,18,23z
		 M6,3C5.4,3,5,3.4,5,4v16c0,0.6,0.4,1,1,1h12c0.6,0,1-0.4,1-1V8.4L13.6,3H6z"/>
</g>
<g>
	<path d="M20,9h-6c-0.6,0-1-0.4-1-1V2c0-0.6,0.4-1,1-1s1,0.4,1,1v5h5c0.6,0,1,0.4,1,1S20.6,9,20,9z"/>
</g>
<g>
	<path d="M16,14H8c-0.6,0-1-0.4-1-1s0.4-1,1-1h8c0.6,0,1,0.4,1,1S16.6,14,16,14z"/>
</g>
<g>
	<path d="M16,18H8c-0.6,0-1-0.4-1-1s0.4-1,1-1h8c0.6,0,1,0.4,1,1S16.6,18,16,18z"/>
</g>
<g>
	<path d="M10,10H8c-0.6,0-1-0.4-1-1s0.4-1,1-1h2c0.6,0,1,0.4,1,1S10.6,10,10,10z"/>
</g>
</svg>
