<?xml version="1.0" encoding="utf-8"?>
<!-- Generator: Adobe Illustrator 23.0.3, SVG Export Plug-In . SVG Version: 6.00 Build 0)  -->
<svg version="1.1" id="Ebene_1" xmlns="http://www.w3.org/2000/svg" xmlns:xlink="http://www.w3.org/1999/xlink" x="0px" y="0px"
	 viewBox="0 0 24 24" style="enable-background:new 0 0 24 24;" xml:space="preserve">
<g>
	<path d="M19.8,23H4.2C2.4,23,1,21.6,1,19.8V4.2C1,2.4,2.4,1,4.2,1h15.6C21.6,1,23,2.4,23,4.2v15.6C23,21.6,21.6,23,19.8,23z M4.2,3
		C3.5,3,3,3.5,3,4.2v15.6C3,20.5,3.5,21,4.2,21h15.6c0.7,0,1.2-0.5,1.2-1.2V4.2C21,3.5,20.5,3,19.8,3H4.2z"/>
</g>
<g>
	<path d="M7,23c-0.6,0-1-0.4-1-1V2c0-0.6,0.4-1,1-1s1,0.4,1,1v20C8,22.6,7.6,23,7,23z"/>
</g>
<g>
	<path d="M17,23c-0.6,0-1-0.4-1-1V2c0-0.6,0.4-1,1-1s1,0.4,1,1v20C18,22.6,17.6,23,17,23z"/>
</g>
<g>
	<path d="M22,13H2c-0.6,0-1-0.4-1-1s0.4-1,1-1h20c0.6,0,1,0.4,1,1S22.6,13,22,13z"/>
</g>
<g>
	<path d="M7,8H2C1.4,8,1,7.6,1,7s0.4-1,1-1h5c0.6,0,1,0.4,1,1S7.6,8,7,8z"/>
</g>
<g>
	<path d="M7,18H2c-0.6,0-1-0.4-1-1s0.4-1,1-1h5c0.6,0,1,0.4,1,1S7.6,18,7,18z"/>
</g>
<g>
	<path d="M22,18h-5c-0.6,0-1-0.4-1-1s0.4-1,1-1h5c0.6,0,1,0.4,1,1S22.6,18,22,18z"/>
</g>
<g>
	<path d="M22,8h-5c-0.6,0-1-0.4-1-1s0.4-1,1-1h5c0.6,0,1,0.4,1,1S22.6,8,22,8z"/>
</g>
</svg>
