<?xml version="1.0" encoding="utf-8"?>
<!-- Generator: Adobe Illustrator 23.0.3, SVG Export Plug-In . SVG Version: 6.00 Build 0)  -->
<svg version="1.1" id="Ebene_1" xmlns="http://www.w3.org/2000/svg" xmlns:xlink="http://www.w3.org/1999/xlink" x="0px" y="0px"
	 viewBox="0 0 24 24" style="enable-background:new 0 0 24 24;" xml:space="preserve">
<g>
	<path d="M12,23C5.9,23,1,18.1,1,12S5.9,1,12,1s11,4.9,11,11S18.1,23,12,23z M12,3c-5,0-9,4-9,9s4,9,9,9s9-4,9-9S17,3,12,3z"/>
</g>
<g>
	<path d="M16,17c-0.3,0-0.6-0.1-0.8-0.4c0,0-1.3-1.6-3.2-1.6s-3.2,1.6-3.2,1.6c-0.3,0.4-1,0.5-1.4,0.2s-0.5-1-0.2-1.4
		C7.3,15.3,9,13,12,13s4.7,2.3,4.8,2.4c0.3,0.4,0.2,1.1-0.2,1.4C16.4,16.9,16.2,17,16,17z"/>
</g>
<g>
	<path d="M9,10c-0.6,0-1-0.4-1-1s0.4-1,1-1l0,0c0.6,0,1,0.4,1,1S9.6,10,9,10z"/>
</g>
<g>
	<path d="M15,10c-0.6,0-1-0.4-1-1s0.4-1,1-1l0,0c0.6,0,1,0.4,1,1S15.6,10,15,10z"/>
</g>
</svg>
