<?xml version="1.0" encoding="utf-8"?>
<!-- Generator: Adobe Illustrator 23.0.3, SVG Export Plug-In . SVG Version: 6.00 Build 0)  -->
<svg version="1.1" id="Ebene_1" xmlns="http://www.w3.org/2000/svg" xmlns:xlink="http://www.w3.org/1999/xlink" x="0px" y="0px"
	 viewBox="0 0 24 24" style="enable-background:new 0 0 24 24;" xml:space="preserve">
<g>
	<path d="M20,23H4c-0.6,0-1-0.4-1-1V12c0-0.6,0.4-1,1-1s1,0.4,1,1v9h14v-9c0-0.6,0.4-1,1-1s1,0.4,1,1v10C21,22.6,20.6,23,20,23z"/>
</g>
<g>
	<path d="M22,13H2c-0.6,0-1-0.4-1-1V7c0-0.6,0.4-1,1-1h20c0.6,0,1,0.4,1,1v5C23,12.6,22.6,13,22,13z M3,11h18V8H3V11z"/>
</g>
<g>
	<path d="M12,23c-0.6,0-1-0.4-1-1V7c0-0.6,0.4-1,1-1s1,0.4,1,1v15C13,22.6,12.6,23,12,23z"/>
</g>
<g>
	<path d="M12,8H7.5C5.6,8,4,6.4,4,4.5S5.6,1,7.5,1c4.3,0,5.4,5.6,5.5,5.8c0.1,0.3,0,0.6-0.2,0.8C12.6,7.9,12.3,8,12,8z M7.5,3
		C6.7,3,6,3.7,6,4.5S6.7,6,7.5,6h3.2C10.2,4.8,9.2,3,7.5,3z"/>
</g>
<g>
	<path d="M16.5,8H12c-0.3,0-0.6-0.1-0.8-0.4C11,7.4,11,7.1,11,6.8C11,6.6,12.2,1,16.5,1C18.4,1,20,2.6,20,4.5S18.4,8,16.5,8z
		 M13.3,6h3.2C17.3,6,18,5.3,18,4.5S17.3,3,16.5,3C14.8,3,13.8,4.8,13.3,6z"/>
</g>
</svg>
