<?xml version="1.0" encoding="utf-8"?>
<!-- Generator: Adobe Illustrator 23.0.3, SVG Export Plug-In . SVG Version: 6.00 Build 0)  -->
<svg version="1.1" id="Ebene_1" xmlns="http://www.w3.org/2000/svg" xmlns:xlink="http://www.w3.org/1999/xlink" x="0px" y="0px"
	 viewBox="0 0 24 24" style="enable-background:new 0 0 24 24;" xml:space="preserve">
<g>
	<path d="M18,22c-2.2,0-4-1.8-4-4s1.8-4,4-4s4,1.8,4,4S20.2,22,18,22z M18,16c-1.1,0-2,0.9-2,2s0.9,2,2,2s2-0.9,2-2S19.1,16,18,16z"
		/>
</g>
<g>
	<path d="M6,10c-2.2,0-4-1.8-4-4s1.8-4,4-4s4,1.8,4,4S8.2,10,6,10z M6,4C4.9,4,4,4.9,4,6s0.9,2,2,2s2-0.9,2-2S7.1,4,6,4z"/>
</g>
<g>
	<path d="M6,22c-0.6,0-1-0.4-1-1V9c0-0.6,0.4-1,1-1s1,0.4,1,1c0,4.4,3.6,8,8,8c0.6,0,1,0.4,1,1s-0.4,1-1,1c-3.3,0-6.2-1.6-8-4v6
		C7,21.6,6.6,22,6,22z"/>
</g>
</svg>
