<?xml version="1.0" encoding="utf-8"?>
<!-- Generator: Adobe Illustrator 23.0.3, SVG Export Plug-In . SVG Version: 6.00 Build 0)  -->
<svg version="1.1" id="Ebene_1" xmlns="http://www.w3.org/2000/svg" xmlns:xlink="http://www.w3.org/1999/xlink" x="0px" y="0px"
	 viewBox="0 0 24 24" style="enable-background:new 0 0 24 24;" xml:space="preserve">
<g>
	<path d="M12,23.1c-0.2,0-0.4-0.1-0.6-0.2L0.8,15.2c-0.6-0.5-0.9-1.3-0.7-2.1L3.8,1.9C3.9,1.6,4,1.4,4.1,1.3c0.5-0.5,1.4-0.5,1.9,0
		c0.2,0.2,0.3,0.4,0.4,0.6l2.2,6.8h6.6l2.2-6.8c0.1-0.3,0.2-0.4,0.4-0.6c0.6-0.5,1.4-0.5,1.9,0c0.2,0.2,0.3,0.4,0.4,0.6l3.7,11.2
		c0.2,0.8-0.1,1.6-0.7,2.1l-10.6,7.7C12.4,23.1,12.2,23.1,12,23.1z M2,13.7l10,7.2l10-7.3L20.8,10l-1.9-5.8L17,10
		c-0.1,0.4-0.5,0.7-1,0.7H8c-0.4,0-0.8-0.3-1-0.7L5.1,4.2L2,13.7z M2,13.8L2,13.8L2,13.8z M4.6,2.5L4.6,2.5L4.6,2.5z M18.3,2.5
		L18.3,2.5L18.3,2.5z"/>
</g>
</svg>
