<?xml version="1.0" encoding="utf-8"?>
<!-- Generator: Adobe Illustrator 23.0.3, SVG Export Plug-In . SVG Version: 6.00 Build 0)  -->
<svg version="1.1" id="Ebene_1" xmlns="http://www.w3.org/2000/svg" xmlns:xlink="http://www.w3.org/1999/xlink" x="0px" y="0px"
	 viewBox="0 0 24 24" style="enable-background:new 0 0 24 24;" xml:space="preserve">
<g>
	<path d="M22,13H2c-0.6,0-1-0.4-1-1s0.4-1,1-1h20c0.6,0,1,0.4,1,1S22.6,13,22,13z"/>
</g>
<g>
	<path d="M20,21H4c-1.7,0-3-1.3-3-3v-6c0-0.2,0-0.3,0.1-0.4l3.4-6.9C5.1,3.6,6.1,3,7.2,3h9.5c1.1,0,2.2,0.6,2.7,1.7l3.4,6.9
		C23,11.7,23,11.8,23,12v6C23,19.7,21.7,21,20,21z M3,12.2V18c0,0.6,0.4,1,1,1h16c0.6,0,1-0.4,1-1v-5.8l-3.3-6.7
		C17.5,5.2,17.1,5,16.8,5H7.2C6.9,5,6.5,5.2,6.3,5.6l0,0L3,12.2z M5.5,5.1L5.5,5.1L5.5,5.1z"/>
</g>
<g>
	<path d="M6,17c-0.3,0-0.5-0.1-0.7-0.3C5.1,16.5,5,16.3,5,16c0-0.1,0-0.3,0.1-0.4c0.1-0.1,0.1-0.2,0.2-0.3s0.2-0.2,0.3-0.2
		c0.2-0.1,0.5-0.1,0.8,0c0.1,0,0.2,0.1,0.3,0.2c0.1,0.1,0.2,0.2,0.2,0.3C7,15.7,7,15.9,7,16c0,0.3-0.1,0.5-0.3,0.7
		C6.5,16.9,6.3,17,6,17z"/>
</g>
<g>
	<path d="M10,17c-0.3,0-0.5-0.1-0.7-0.3C9.1,16.5,9,16.3,9,16c0-0.1,0-0.3,0.1-0.4c0.1-0.1,0.1-0.2,0.2-0.3c0.4-0.4,1-0.4,1.4,0
		c0.1,0.1,0.2,0.2,0.2,0.3C11,15.7,11,15.9,11,16c0,0.3-0.1,0.5-0.3,0.7C10.5,16.9,10.3,17,10,17z"/>
</g>
</svg>
