<?xml version="1.0" encoding="utf-8"?>
<!-- Generator: Adobe Illustrator 23.0.3, SVG Export Plug-In . SVG Version: 6.00 Build 0)  -->
<svg version="1.1" id="Ebene_1" xmlns="http://www.w3.org/2000/svg" xmlns:xlink="http://www.w3.org/1999/xlink" x="0px" y="0px"
	 viewBox="0 0 24 24" style="enable-background:new 0 0 24 24;" xml:space="preserve">
<g>
	<path d="M20,10H4c-0.6,0-1-0.4-1-1s0.4-1,1-1h16c0.6,0,1,0.4,1,1S20.6,10,20,10z"/>
</g>
<g>
	<path d="M20,16H4c-0.6,0-1-0.4-1-1s0.4-1,1-1h16c0.6,0,1,0.4,1,1S20.6,16,20,16z"/>
</g>
<g>
	<path d="M8,22L8,22c-0.6-0.1-1-0.6-1-1.1l2-18c0.1-0.6,0.6-1,1.1-0.9C10.6,2.1,11,2.6,11,3.1l-2,18C8.9,21.6,8.5,22,8,22z"/>
</g>
<g>
	<path d="M14,22h-0.1c-0.5-0.1-0.9-0.6-0.9-1.1l2-18C15.1,2.4,15.6,2,16.1,2C16.6,2.1,17,2.6,17,3.1l-2,18C14.9,21.6,14.5,22,14,22z
		"/>
</g>
</svg>
