<?xml version="1.0" encoding="utf-8"?>
<!-- Generator: Adobe Illustrator 23.0.3, SVG Export Plug-In . SVG Version: 6.00 Build 0)  -->
<svg version="1.1" id="Ebene_1" xmlns="http://www.w3.org/2000/svg" xmlns:xlink="http://www.w3.org/1999/xlink" x="0px" y="0px"
	 viewBox="0 0 24 24" style="enable-background:new 0 0 24 24;" xml:space="preserve">
<g>
	<path d="M12,23C5.9,23,1,18.1,1,12S5.9,1,12,1s11,4.9,11,11S18.1,23,12,23z M12,3c-5,0-9,4-9,9s4,9,9,9s9-4,9-9S17,3,12,3z"/>
</g>
<g>
	<path d="M11.9,14c-0.4,0-0.8-0.3-0.9-0.7c-0.2-0.5,0.1-1.1,0.6-1.3c0.6-0.2,2.3-1,2.3-2.1c0-0.9-0.5-1.6-1.3-1.9
		c-1-0.4-2.2,0.2-2.6,1.2C9.8,9.7,9.2,10,8.7,9.8C8.2,9.8,8,9.2,8.1,8.7c0.7-2.1,3-3.2,5.1-2.4c1.6,0.6,2.7,2.1,2.7,3.8
		c0,2.6-3.3,3.8-3.7,3.9C12.1,14,12,14,11.9,14z"/>
</g>
<g>
	<path d="M12,18c-0.3,0-0.5-0.1-0.7-0.3C11.1,17.5,11,17.3,11,17c0-0.1,0-0.3,0.1-0.4s0.1-0.2,0.2-0.3c0.4-0.4,1-0.4,1.4,0
		c0.1,0.1,0.2,0.2,0.2,0.3c0,0.1,0.1,0.2,0.1,0.4s0,0.3-0.1,0.4s-0.1,0.2-0.2,0.3C12.5,17.9,12.3,18,12,18z"/>
</g>
</svg>
