<?xml version="1.0" encoding="utf-8"?>
<!-- Generator: Adobe Illustrator 23.0.3, SVG Export Plug-In . SVG Version: 6.00 Build 0)  -->
<svg version="1.1" id="Ebene_1" xmlns="http://www.w3.org/2000/svg" xmlns:xlink="http://www.w3.org/1999/xlink" x="0px" y="0px"
	 viewBox="0 0 24 24" style="enable-background:new 0 0 24 24;" xml:space="preserve">
<g>
	<path d="M19,22H5c-1.7,0-3-1.3-3-3V5c0-1.7,1.3-3,3-3h14c1.7,0,3,1.3,3,3v14C22,20.7,20.7,22,19,22z M5,4C4.4,4,4,4.4,4,5v14
		c0,0.6,0.4,1,1,1h14c0.6,0,1-0.4,1-1V5c0-0.6-0.4-1-1-1H5z"/>
</g>
<g>
	<path d="M8.5,11C7.1,11,6,9.9,6,8.5S7.1,6,8.5,6S11,7.1,11,8.5S9.9,11,8.5,11z M8.5,8C8.2,8,8,8.2,8,8.5S8.2,9,8.5,9S9,8.8,9,8.5
		S8.8,8,8.5,8z"/>
</g>
<g>
	<path d="M5,22c-0.3,0-0.5-0.1-0.7-0.3c-0.4-0.4-0.4-1,0-1.4l11-11c0.4-0.4,1-0.4,1.4,0l5,5c0.4,0.4,0.4,1,0,1.4s-1,0.4-1.4,0
		L16,11.4L5.7,21.7C5.5,21.9,5.3,22,5,22z"/>
</g>
</svg>
