<?xml version="1.0" encoding="utf-8"?>
<!-- Generator: Adobe Illustrator 23.0.3, SVG Export Plug-In . SVG Version: 6.00 Build 0)  -->
<svg version="1.1" id="Ebene_1" xmlns="http://www.w3.org/2000/svg" xmlns:xlink="http://www.w3.org/1999/xlink" x="0px" y="0px"
	 viewBox="0 0 24 24" style="enable-background:new 0 0 24 24;" xml:space="preserve">
<g>
	<path d="M14,16h-4c-0.3,0-0.6-0.2-0.8-0.4L7.5,13H2c-0.6,0-1-0.4-1-1s0.4-1,1-1h6c0.3,0,0.6,0.2,0.8,0.4l1.7,2.6h2.9l1.7-2.6
		c0.2-0.3,0.5-0.4,0.8-0.4h6c0.6,0,1,0.4,1,1s-0.4,1-1,1h-5.5l-1.7,2.6C14.6,15.8,14.3,16,14,16z"/>
</g>
<g>
	<path d="M20,21H4c-1.7,0-3-1.3-3-3v-6c0-0.2,0-0.3,0.1-0.4l3.4-6.9C5.1,3.6,6.1,3,7.2,3h9.5c1.1,0,2.2,0.6,2.7,1.7l3.4,6.9
		C23,11.7,23,11.8,23,12v6C23,19.7,21.7,21,20,21z M3,12.2V18c0,0.6,0.4,1,1,1h16c0.6,0,1-0.4,1-1v-5.8l-3.3-6.7
		C17.5,5.2,17.1,5,16.8,5H7.2C6.9,5,6.5,5.2,6.3,5.6l0,0L3,12.2z M5.5,5.1L5.5,5.1L5.5,5.1z"/>
</g>
</svg>
