<?xml version="1.0" encoding="utf-8"?>
<!-- Generator: Adobe Illustrator 23.0.3, SVG Export Plug-In . SVG Version: 6.00 Build 0)  -->
<svg version="1.1" id="Ebene_1" xmlns="http://www.w3.org/2000/svg" xmlns:xlink="http://www.w3.org/1999/xlink" x="0px" y="0px"
	 viewBox="0 0 24 24" style="enable-background:new 0 0 24 24;" xml:space="preserve">
<g>
	<path d="M19,5h-9C9.4,5,9,4.6,9,4s0.4-1,1-1h9c0.6,0,1,0.4,1,1S19.6,5,19,5z"/>
</g>
<g>
	<path d="M14,21H5c-0.6,0-1-0.4-1-1s0.4-1,1-1h9c0.6,0,1,0.4,1,1S14.6,21,14,21z"/>
</g>
<g>
	<path d="M9,21c-0.1,0-0.2,0-0.4-0.1c-0.5-0.2-0.8-0.8-0.6-1.3l6-16c0.2-0.5,0.8-0.8,1.3-0.6s0.8,0.8,0.6,1.3l-6,16
		C9.8,20.8,9.4,21,9,21z"/>
</g>
</svg>
