<?xml version="1.0" encoding="utf-8"?>
<!-- Generator: Adobe Illustrator 23.0.3, SVG Export Plug-In . SVG Version: 6.00 Build 0)  -->
<svg version="1.1" id="Ebene_1" xmlns="http://www.w3.org/2000/svg" xmlns:xlink="http://www.w3.org/1999/xlink" x="0px" y="0px"
	 viewBox="0 0 24 24" style="enable-background:new 0 0 24 24;" xml:space="preserve">
<g>
	<path d="M22,22h-4c-0.6,0-1-0.4-1-1v-7c0-0.6-0.4-1-1-1s-1,0.4-1,1v7c0,0.6-0.4,1-1,1h-4c-0.6,0-1-0.4-1-1v-7c0-3.9,3.1-7,7-7
		s7,3.1,7,7v7C23,21.6,22.6,22,22,22z M19,20h2v-6c0-2.8-2.2-5-5-5s-5,2.2-5,5v6h2v-6c0-1.7,1.3-3,3-3s3,1.3,3,3V20z"/>
</g>
<g>
	<path d="M6,22H2c-0.6,0-1-0.4-1-1V9c0-0.6,0.4-1,1-1h4c0.6,0,1,0.4,1,1v12C7,21.6,6.6,22,6,22z M3,20h2V10H3V20z"/>
</g>
<g>
	<path d="M4,7C2.3,7,1,5.7,1,4s1.3-3,3-3s3,1.3,3,3S5.7,7,4,7z M4,3C3.4,3,3,3.4,3,4s0.4,1,1,1s1-0.4,1-1S4.6,3,4,3z"/>
</g>
</svg>
