<?xml version="1.0" encoding="utf-8"?>
<!-- Generator: Adobe Illustrator 23.0.3, SVG Export Plug-In . SVG Version: 6.00 Build 0)  -->
<svg version="1.1" id="Ebene_1" xmlns="http://www.w3.org/2000/svg" xmlns:xlink="http://www.w3.org/1999/xlink" x="0px" y="0px"
	 viewBox="0 0 24 24" style="enable-background:new 0 0 24 24;" xml:space="preserve">
<g>
	<path d="M21,7H8C7.4,7,7,6.6,7,6s0.4-1,1-1h13c0.6,0,1,0.4,1,1S21.6,7,21,7z"/>
</g>
<g>
	<path d="M21,13H8c-0.6,0-1-0.4-1-1s0.4-1,1-1h13c0.6,0,1,0.4,1,1S21.6,13,21,13z"/>
</g>
<g>
	<path d="M21,19H8c-0.6,0-1-0.4-1-1s0.4-1,1-1h13c0.6,0,1,0.4,1,1S21.6,19,21,19z"/>
</g>
<g>
	<path d="M3,7C2.9,7,2.9,7,2.8,7C2.7,7,2.7,7,2.6,6.9c-0.1,0-0.1-0.1-0.2-0.1c-0.1,0-0.1-0.1-0.1-0.1c0-0.1-0.1-0.1-0.1-0.1
		c0-0.1-0.1-0.1-0.1-0.2C2,6.3,2,6.3,2,6.2C2,6.1,2,6.1,2,6s0-0.3,0.1-0.4s0.1-0.2,0.2-0.3C2.6,5,3,4.9,3.4,5.1
		c0.1,0.1,0.2,0.1,0.3,0.2C3.9,5.5,4,5.7,4,6c0,0.1,0,0.1,0,0.2s0,0.1-0.1,0.2c0,0.1-0.1,0.1-0.1,0.2L3.7,6.7C3.5,6.9,3.3,7,3,7z"/>
</g>
<g>
	<path d="M3,13c-0.1,0-0.1,0-0.2,0c-0.1,0-0.1,0-0.2-0.1c-0.1,0-0.1-0.1-0.2-0.1c-0.1,0-0.1-0.1-0.1-0.1C2.1,12.5,2,12.3,2,12
		c0-0.1,0-0.3,0.1-0.4c0.1-0.1,0.1-0.2,0.2-0.3l0.1-0.1c0.1,0,0.1-0.1,0.2-0.1c0.1,0,0.1,0,0.2-0.1c0.3-0.1,0.7,0,0.9,0.3
		c0.1,0.1,0.2,0.2,0.2,0.3C4,11.7,4,11.9,4,12s0,0.1,0,0.2c0,0.1,0,0.1-0.1,0.2c0,0.1-0.1,0.1-0.1,0.2l-0.1,0.1
		C3.5,12.9,3.3,13,3,13z"/>
</g>
<g>
	<path d="M3,19c-0.1,0-0.3,0-0.4-0.1c-0.1,0-0.2-0.1-0.3-0.2C2.1,18.5,2,18.3,2,18c0-0.1,0-0.3,0.1-0.4s0.1-0.2,0.2-0.3
		C2.6,17,3,16.9,3.4,17.1c0.1,0,0.2,0.1,0.3,0.2s0.2,0.2,0.2,0.3C4,17.7,4,17.9,4,18s0,0.3-0.1,0.4s-0.1,0.2-0.2,0.3
		C3.5,18.9,3.3,19,3,19z"/>
</g>
</svg>
