<?xml version="1.0" encoding="utf-8"?>
<!-- Generator: Adobe Illustrator 23.0.3, SVG Export Plug-In . SVG Version: 6.00 Build 0)  -->
<svg version="1.1" id="Ebene_1" xmlns="http://www.w3.org/2000/svg" xmlns:xlink="http://www.w3.org/1999/xlink" x="0px" y="0px"
	 viewBox="0 0 24 24" style="enable-background:new 0 0 24 24;" xml:space="preserve">
<g>
	<path d="M19,22h-4c-0.6,0-1-0.4-1-1s0.4-1,1-1h4c0.6,0,1-0.4,1-1V5c0-0.6-0.4-1-1-1h-4c-0.6,0-1-0.4-1-1s0.4-1,1-1h4
		c1.7,0,3,1.3,3,3v14C22,20.7,20.7,22,19,22z"/>
</g>
<g>
	<path d="M10,18c-0.3,0-0.5-0.1-0.7-0.3c-0.4-0.4-0.4-1,0-1.4l4.3-4.3L9.3,7.7c-0.4-0.4-0.4-1,0-1.4s1-0.4,1.4,0l5,5
		c0.4,0.4,0.4,1,0,1.4l-5,5C10.5,17.9,10.3,18,10,18z"/>
</g>
<g>
	<path d="M15,13H3c-0.6,0-1-0.4-1-1s0.4-1,1-1h12c0.6,0,1,0.4,1,1S15.6,13,15,13z"/>
</g>
</svg>
