<?xml version="1.0" encoding="utf-8"?>
<!-- Generator: Adobe Illustrator 23.0.3, SVG Export Plug-In . SVG Version: 6.00 Build 0)  -->
<svg version="1.1" id="Ebene_1" xmlns="http://www.w3.org/2000/svg" xmlns:xlink="http://www.w3.org/1999/xlink" x="0px" y="0px"
	 viewBox="0 0 24 24" style="enable-background:new 0 0 24 24;" xml:space="preserve">
<g>
	<path d="M19,22h-3c-0.6,0-1-0.4-1-1s0.4-1,1-1h3c0.6,0,1-0.4,1-1v-3c0-0.6,0.4-1,1-1s1,0.4,1,1v3C22,20.7,20.7,22,19,22z M8,22H5
		c-1.7,0-3-1.3-3-3v-3c0-0.6,0.4-1,1-1s1,0.4,1,1v3c0,0.6,0.4,1,1,1h3c0.6,0,1,0.4,1,1S8.6,22,8,22z M21,9c-0.6,0-1-0.4-1-1V5
		c0-0.6-0.4-1-1-1h-3c-0.6,0-1-0.4-1-1s0.4-1,1-1h3c1.7,0,3,1.3,3,3v3C22,8.6,21.6,9,21,9z M3,9C2.4,9,2,8.6,2,8V5c0-1.7,1.3-3,3-3
		h3c0.6,0,1,0.4,1,1S8.6,4,8,4H5C4.4,4,4,4.4,4,5v3C4,8.6,3.6,9,3,9z"/>
</g>
</svg>
