<?xml version="1.0" encoding="utf-8"?>
<!-- Generator: Adobe Illustrator 23.0.3, SVG Export Plug-In . SVG Version: 6.00 Build 0)  -->
<svg version="1.1" id="Ebene_1" xmlns="http://www.w3.org/2000/svg" xmlns:xlink="http://www.w3.org/1999/xlink" x="0px" y="0px"
	 viewBox="0 0 24 24" style="enable-background:new 0 0 24 24;" xml:space="preserve">
<g>
	<path d="M23,24c-0.3,0-0.5-0.1-0.7-0.3l-22-22c-0.4-0.4-0.4-1,0-1.4s1-0.4,1.4,0l22,22c0.4,0.4,0.4,1,0,1.4
		C23.5,23.9,23.3,24,23,24z"/>
</g>
<g>
	<path d="M12,16c-1.1,0-2.1-0.4-2.8-1.2C8.4,14.1,8,13.1,8,12V9c0-0.6,0.4-1,1-1s1,0.4,1,1v3c0,0.5,0.2,1,0.6,1.4
		C11,13.8,11.5,14,12,14l0,0c0.5,0,1-0.2,1.4-0.6c0.4-0.4,1-0.4,1.4,0s0.4,1,0,1.4C14.1,15.6,13.1,16,12,16L12,16z M15,10.3
		c-0.6,0-1-0.4-1-1V4c0-0.5-0.2-1-0.6-1.4C13,2.2,12.5,2,12,2l0,0c-0.9,0-1.8,0.7-2,1.6C9.9,4.1,9.4,4.5,8.9,4.4
		C8.3,4.3,8,3.7,8.1,3.2C8.5,1.3,10.1,0,12,0l0,0c1.1,0,2.1,0.4,2.8,1.2C15.6,1.9,16,2.9,16,4v5.3C16,9.9,15.6,10.3,15,10.3z"/>
</g>
<g>
	<path d="M12,20c-2,0-4-0.8-5.6-2.3C4.9,16.3,4,14.2,4,12v-2c0-0.6,0.4-1,1-1s1,0.4,1,1v2c0,1.6,0.6,3.2,1.8,4.3
		c2.4,2.3,6.2,2.3,8.5-0.1c0.4-0.4,1-0.4,1.4,0s0.4,1,0,1.4C16.2,19.2,14.1,20,12,20z M18.9,14.2c-0.1,0-0.1,0-0.2,0
		c-0.5-0.1-0.9-0.6-0.8-1.2c0.1-0.3,0.1-0.6,0.1-1v-2c0-0.6,0.4-1,1-1s1,0.4,1,1v2c0,0.5,0,0.9-0.1,1.4S19.4,14.2,18.9,14.2z"/>
</g>
<g>
	<path d="M12,24c-0.6,0-1-0.4-1-1v-4c0-0.6,0.4-1,1-1s1,0.4,1,1v4C13,23.6,12.6,24,12,24z"/>
</g>
<g>
	<path d="M16,24H8c-0.6,0-1-0.4-1-1s0.4-1,1-1h8c0.6,0,1,0.4,1,1S16.6,24,16,24z"/>
</g>
</svg>
