<?xml version="1.0" encoding="utf-8"?>
<!-- Generator: Adobe Illustrator 23.0.3, SVG Export Plug-In . SVG Version: 6.00 Build 0)  -->
<svg version="1.1" id="Ebene_1" xmlns="http://www.w3.org/2000/svg" xmlns:xlink="http://www.w3.org/1999/xlink" x="0px" y="0px"
	 viewBox="0 0 24 24" style="enable-background:new 0 0 24 24;" xml:space="preserve">
<g>
	<path d="M12,16c-2.2,0-4-1.8-4-4V4c0-2.2,1.8-4,4-4s4,1.8,4,4v8C16,14.2,14.2,16,12,16z M12,2c-1.1,0-2,0.9-2,2v8c0,1.1,0.9,2,2,2
		s2-0.9,2-2V4C14,2.9,13.1,2,12,2z"/>
</g>
<g>
	<path d="M12,20c-4.4,0-8-3.6-8-8v-2c0-0.6,0.4-1,1-1s1,0.4,1,1v2c0,3.3,2.7,6,6,6s6-2.7,6-6v-2c0-0.6,0.4-1,1-1s1,0.4,1,1v2
		C20,16.4,16.4,20,12,20z"/>
</g>
<g>
	<path d="M12,24c-0.6,0-1-0.4-1-1v-4c0-0.6,0.4-1,1-1s1,0.4,1,1v4C13,23.6,12.6,24,12,24z"/>
</g>
<g>
	<path d="M16,24H8c-0.6,0-1-0.4-1-1s0.4-1,1-1h8c0.6,0,1,0.4,1,1S16.6,24,16,24z"/>
</g>
</svg>
