<?xml version="1.0" encoding="utf-8"?>
<!-- Generator: Adobe Illustrator 23.0.3, SVG Export Plug-In . SVG Version: 6.00 Build 0)  -->
<svg version="1.1" id="Ebene_1" xmlns="http://www.w3.org/2000/svg" xmlns:xlink="http://www.w3.org/1999/xlink" x="0px" y="0px"
	 viewBox="0 0 24 24" style="enable-background:new 0 0 24 24;" xml:space="preserve">
<g>
	<path d="M16,22c-0.6,0-1-0.4-1-1v-3c0-1.7,1.3-3,3-3h3c0.6,0,1,0.4,1,1s-0.4,1-1,1h-3c-0.6,0-1,0.4-1,1v3C17,21.6,16.6,22,16,22z
		 M8,22c-0.6,0-1-0.4-1-1v-3c0-0.6-0.4-1-1-1H3c-0.6,0-1-0.4-1-1s0.4-1,1-1h3c1.7,0,3,1.3,3,3v3C9,21.6,8.6,22,8,22z M21,9h-3
		c-1.7,0-3-1.3-3-3V3c0-0.6,0.4-1,1-1s1,0.4,1,1v3c0,0.6,0.4,1,1,1h3c0.6,0,1,0.4,1,1S21.6,9,21,9z M6,9H3C2.4,9,2,8.6,2,8
		s0.4-1,1-1h3c0.6,0,1-0.4,1-1V3c0-0.6,0.4-1,1-1s1,0.4,1,1v3C9,7.7,7.7,9,6,9z"/>
</g>
</svg>
