<?xml version="1.0" encoding="utf-8"?>
<!-- Generator: Adobe Illustrator 23.0.3, SVG Export Plug-In . SVG Version: 6.00 Build 0)  -->
<svg version="1.1" id="Ebene_1" xmlns="http://www.w3.org/2000/svg" xmlns:xlink="http://www.w3.org/1999/xlink" x="0px" y="0px"
	 viewBox="0 0 24 24" style="enable-background:new 0 0 24 24;" xml:space="preserve">
<g>
	<path d="M20,18H4c-1.7,0-3-1.3-3-3V5c0-1.7,1.3-3,3-3h16c1.7,0,3,1.3,3,3v10C23,16.7,21.7,18,20,18z M4,4C3.4,4,3,4.4,3,5v10
		c0,0.6,0.4,1,1,1h16c0.6,0,1-0.4,1-1V5c0-0.6-0.4-1-1-1H4z"/>
</g>
<g>
	<path d="M16,22H8c-0.6,0-1-0.4-1-1s0.4-1,1-1h8c0.6,0,1,0.4,1,1S16.6,22,16,22z"/>
</g>
<g>
	<path d="M12,22c-0.6,0-1-0.4-1-1v-4c0-0.6,0.4-1,1-1s1,0.4,1,1v4C13,21.6,12.6,22,12,22z"/>
</g>
</svg>
