<?xml version="1.0" encoding="utf-8"?>
<!-- Generator: Adobe Illustrator 23.0.3, SVG Export Plug-In . SVG Version: 6.00 Build 0)  -->
<svg version="1.1" id="Ebene_1" xmlns="http://www.w3.org/2000/svg" xmlns:xlink="http://www.w3.org/1999/xlink" x="0px" y="0px"
	 viewBox="0 0 24 24" style="enable-background:new 0 0 24 24;" xml:space="preserve">
<g>
	<path d="M10.1,21c-0.4,0-0.8-0.2-0.9-0.6l-7.1-17C1.9,3,2,2.6,2.3,2.3S3,1.9,3.4,2.1l17,7.1c0.4,0.2,0.6,0.5,0.6,1
		c0,0.4-0.3,0.8-0.7,0.9l-6.9,2.4L11,20.3C10.9,20.7,10.5,21,10.1,21L10.1,21z M4.9,4.9L10,17.1l1.7-4.9c0.1-0.3,0.3-0.5,0.6-0.6
		l4.9-1.7L4.9,4.9z"/>
</g>
<g>
	<path d="M19,20c-0.3,0-0.5-0.1-0.7-0.3l-6-6c-0.4-0.4-0.4-1,0-1.4s1-0.4,1.4,0l6,6c0.4,0.4,0.4,1,0,1.4C19.5,19.9,19.3,20,19,20z"
		/>
</g>
</svg>
