<?xml version="1.0" encoding="utf-8"?>
<!-- Generator: Adobe Illustrator 23.0.3, SVG Export Plug-In . SVG Version: 6.00 Build 0)  -->
<svg version="1.1" id="Ebene_1" xmlns="http://www.w3.org/2000/svg" xmlns:xlink="http://www.w3.org/1999/xlink" x="0px" y="0px"
	 viewBox="0 0 24 24" style="enable-background:new 0 0 24 24;" xml:space="preserve">
<g>
	<path d="M9,19c-0.6,0-1-0.4-1-1V5c0-0.5,0.4-0.9,0.8-1l12-2c0.3,0,0.6,0,0.8,0.2C21.9,2.4,22,2.7,22,3v13c0,0.6-0.4,1-1,1
		s-1-0.4-1-1V4.2L10,5.8V18C10,18.6,9.6,19,9,19z"/>
</g>
<g>
	<path d="M6,22c-2.2,0-4-1.8-4-4s1.8-4,4-4s4,1.8,4,4S8.2,22,6,22z M6,16c-1.1,0-2,0.9-2,2s0.9,2,2,2s2-0.9,2-2S7.1,16,6,16z"/>
</g>
<g>
	<path d="M18,20c-2.2,0-4-1.8-4-4s1.8-4,4-4s4,1.8,4,4S20.2,20,18,20z M18,14c-1.1,0-2,0.9-2,2s0.9,2,2,2s2-0.9,2-2S19.1,14,18,14z"
		/>
</g>
</svg>
