<?xml version="1.0" encoding="utf-8"?>
<!-- Generator: Adobe Illustrator 23.0.3, SVG Export Plug-In . SVG Version: 6.00 Build 0)  -->
<svg version="1.1" id="Ebene_1" xmlns="http://www.w3.org/2000/svg" xmlns:xlink="http://www.w3.org/1999/xlink" x="0px" y="0px"
	 viewBox="0 0 24 24" style="enable-background:new 0 0 24 24;" xml:space="preserve">
<g>
	<path d="M8,23c-1.8,0-3.6-0.7-5-2c-2.7-2.7-2.7-7.2,0-9.9l9.2-9.2c0.9-0.9,2.2-1.5,3.5-1.5s2.6,0.5,3.5,1.5c2,2,2,5.1,0,7.1
		L10,18.2c-1.2,1.2-3.1,1.2-4.2,0C5.3,17.6,5,16.8,5,16s0.3-1.6,0.9-2.1l8.5-8.5c0.4-0.4,1-0.4,1.4,0s0.4,1,0,1.4l-8.5,8.5
		C7.1,15.5,7,15.7,7,16c0,0.3,0.1,0.5,0.3,0.7c0.4,0.4,1,0.4,1.4,0l9.2-9.2c1.2-1.2,1.2-3.1,0-4.2c-1.1-1.1-3.1-1.1-4.2,0l-9.2,9.2
		c-2,2-2,5.1,0,7.1s5.1,2,7.1,0l9.2-9.2c0.4-0.4,1-0.4,1.4,0s0.4,1,0,1.4L13,20.9C11.6,22.3,9.8,23,8,23z"/>
</g>
</svg>
