<?xml version="1.0" encoding="utf-8"?>
<!-- Generator: Adobe Illustrator 23.0.3, SVG Export Plug-In . SVG Version: 6.00 Build 0)  -->
<svg version="1.1" id="Ebene_1" xmlns="http://www.w3.org/2000/svg" xmlns:xlink="http://www.w3.org/1999/xlink" x="0px" y="0px"
	 viewBox="0 0 24 24" style="enable-background:new 0 0 24 24;" xml:space="preserve">
<g>
	<path d="M10,21H6c-0.6,0-1-0.4-1-1V4c0-0.6,0.4-1,1-1h4c0.6,0,1,0.4,1,1v16C11,20.6,10.6,21,10,21z M7,19h2V5H7V19z"/>
</g>
<g>
	<path d="M18,21h-4c-0.6,0-1-0.4-1-1V4c0-0.6,0.4-1,1-1h4c0.6,0,1,0.4,1,1v16C19,20.6,18.6,21,18,21z M15,19h2V5h-2V19z"/>
</g>
</svg>
