<?xml version="1.0" encoding="utf-8"?>
<!-- Generator: Adobe Illustrator 23.0.3, SVG Export Plug-In . SVG Version: 6.00 Build 0)  -->
<svg version="1.1" id="Ebene_1" xmlns="http://www.w3.org/2000/svg" xmlns:xlink="http://www.w3.org/1999/xlink" x="0px" y="0px"
	 viewBox="0 0 24 24" style="enable-background:new 0 0 24 24;" xml:space="preserve">
<g>
	<path d="M15,23c-0.3,0-0.5-0.1-0.7-0.3l-3-3c-0.4-0.4-0.4-1,0-1.4l7-7c0.4-0.4,1-0.4,1.4,0l3,3c0.4,0.4,0.4,1,0,1.4l-7,7
		C15.5,22.9,15.3,23,15,23z M13.4,19l1.6,1.6l5.6-5.6L19,13.4L13.4,19z"/>
</g>
<g>
	<path d="M13,19c-0.1,0-0.1,0-0.2,0l-7.5-1.5c-0.4-0.1-0.7-0.4-0.8-0.7L1,2.2C0.9,1.9,1,1.5,1.3,1.3C1.5,1,1.9,0.9,2.2,1l14.5,3.5
		c0.4,0.1,0.7,0.4,0.7,0.8l1.5,7.5c0.1,0.3,0,0.7-0.3,0.9l-5,5C13.5,18.9,13.3,19,13,19z M6.3,15.6l6.3,1.3l4.2-4.2l-1.3-6.3
		l-12.3-3L6.3,15.6z"/>
</g>
<g>
	<path d="M9.6,10.6c-0.3,0-0.5-0.1-0.7-0.3L1.3,2.7c-0.4-0.4-0.4-1,0-1.4s1-0.4,1.4,0l7.6,7.6c0.4,0.4,0.4,1,0,1.4
		C10.1,10.5,9.8,10.6,9.6,10.6z"/>
</g>
<g>
	<path d="M11,14c-1.7,0-3-1.3-3-3s1.3-3,3-3s3,1.3,3,3S12.7,14,11,14z M11,10c-0.6,0-1,0.4-1,1s0.4,1,1,1s1-0.4,1-1S11.6,10,11,10z"
		/>
</g>
</svg>
