<?xml version="1.0" encoding="utf-8"?>
<!-- Generator: Adobe Illustrator 23.0.3, SVG Export Plug-In . SVG Version: 6.00 Build 0)  -->
<svg version="1.1" id="Ebene_1" xmlns="http://www.w3.org/2000/svg" xmlns:xlink="http://www.w3.org/1999/xlink" x="0px" y="0px"
	 viewBox="0 0 24 24" style="enable-background:new 0 0 24 24;" xml:space="preserve">
<g>
	<path d="M5,20c-0.3,0-0.5-0.1-0.7-0.3c-0.4-0.4-0.4-1,0-1.4l14-14c0.4-0.4,1-0.4,1.4,0s0.4,1,0,1.4l-14,14C5.5,19.9,5.3,20,5,20z"
		/>
</g>
<g>
	<path d="M6.5,10C4.6,10,3,8.4,3,6.5S4.6,3,6.5,3S10,4.6,10,6.5S8.4,10,6.5,10z M6.5,5C5.7,5,5,5.7,5,6.5S5.7,8,6.5,8S8,7.3,8,6.5
		S7.3,5,6.5,5z"/>
</g>
<g>
	<path d="M17.5,21c-1.9,0-3.5-1.6-3.5-3.5s1.6-3.5,3.5-3.5s3.5,1.6,3.5,3.5S19.4,21,17.5,21z M17.5,16c-0.8,0-1.5,0.7-1.5,1.5
		s0.7,1.5,1.5,1.5s1.5-0.7,1.5-1.5S18.3,16,17.5,16z"/>
</g>
</svg>
