<?xml version="1.0" encoding="utf-8"?>
<!-- Generator: Adobe Illustrator 23.0.3, SVG Export Plug-In . SVG Version: 6.00 Build 0)  -->
<svg version="1.1" id="Ebene_1" xmlns="http://www.w3.org/2000/svg" xmlns:xlink="http://www.w3.org/1999/xlink" x="0px" y="0px"
	 viewBox="0 0 24 24" style="enable-background:new 0 0 24 24;" xml:space="preserve">
<g>
	<path d="M12,23C5.9,23,1,18.1,1,12S5.9,1,12,1s11,4.9,11,11S18.1,23,12,23z M12,3c-5,0-9,4-9,9s4,9,9,9s9-4,9-9S17,3,12,3z"/>
</g>
<g>
	<path d="M10,17c-0.2,0-0.3,0-0.5-0.1C9.2,16.7,9,16.4,9,16V8c0-0.4,0.2-0.7,0.5-0.9c0.3-0.2,0.7-0.2,1,0l6,4
		c0.3,0.2,0.4,0.5,0.4,0.8s-0.2,0.6-0.4,0.8l-6,4C10.4,16.9,10.2,17,10,17z M11,9.9v4.3l3.2-2.1L11,9.9z"/>
</g>
</svg>
