<?xml version="1.0" encoding="utf-8"?>
<!-- Generator: Adobe Illustrator 23.0.3, SVG Export Plug-In . SVG Version: 6.00 Build 0)  -->
<svg version="1.1" id="Ebene_1" xmlns="http://www.w3.org/2000/svg" xmlns:xlink="http://www.w3.org/1999/xlink" x="0px" y="0px"
	 viewBox="0 0 24 24" style="enable-background:new 0 0 24 24;" xml:space="preserve">
<g>
	<path d="M12,22C5.9,22,1,17.1,1,11V5c0-1.7,1.3-3,3-3h16c1.7,0,3,1.3,3,3v6C23,17.1,18.1,22,12,22z M4,4C3.4,4,3,4.4,3,5v6
		c0,5,4,9,9,9s9-4,9-9V5c0-0.6-0.4-1-1-1H4z"/>
</g>
<g>
	<path d="M12,15c-0.3,0-0.5-0.1-0.7-0.3l-4-4c-0.4-0.4-0.4-1,0-1.4s1-0.4,1.4,0l3.3,3.3l3.3-3.3c0.4-0.4,1-0.4,1.4,0s0.4,1,0,1.4
		l-4,4C12.5,14.9,12.3,15,12,15z"/>
</g>
</svg>
