<?xml version="1.0" encoding="utf-8"?>
<!-- Generator: Adobe Illustrator 23.0.3, SVG Export Plug-In . SVG Version: 6.00 Build 0)  -->
<svg version="1.1" id="Ebene_1" xmlns="http://www.w3.org/2000/svg" xmlns:xlink="http://www.w3.org/1999/xlink" x="0px" y="0px"
	 viewBox="0 0 24 24" style="enable-background:new 0 0 24 24;" xml:space="preserve">
<g>
	<path d="M12,23c-2.6,0-5.1-1-7.1-2.9C1,16.2,1,9.8,4.9,5.9c0.4-0.4,1-0.4,1.4,0s0.4,1,0,1.4c-3.1,3.1-3.1,8.2,0,11.3
		s8.2,3.1,11.3,0s3.1-8.2,0-11.3c-0.4-0.4-0.4-1,0-1.4s1-0.4,1.4,0c3.9,3.9,3.9,10.2,0,14.1C17.1,22,14.6,23,12,23z"/>
</g>
<g>
	<path d="M12,13c-0.6,0-1-0.4-1-1V2c0-0.6,0.4-1,1-1s1,0.4,1,1v10C13,12.6,12.6,13,12,13z"/>
</g>
</svg>
