<?xml version="1.0" encoding="utf-8"?>
<!-- Generator: Adobe Illustrator 23.0.3, SVG Export Plug-In . SVG Version: 6.00 Build 0)  -->
<svg version="1.1" id="Ebene_1" xmlns="http://www.w3.org/2000/svg" xmlns:xlink="http://www.w3.org/1999/xlink" x="0px" y="0px"
	 viewBox="0 0 24 24" style="enable-background:new 0 0 24 24;" xml:space="preserve">
<g>
	<path d="M12,15c-1.7,0-3-1.3-3-3s1.3-3,3-3s3,1.3,3,3S13.7,15,12,15z M12,11c-0.6,0-1,0.4-1,1s0.4,1,1,1s1-0.4,1-1S12.6,11,12,11z"
		/>
</g>
<g>
	<path d="M19.1,20.1c-0.3,0-0.5-0.1-0.7-0.3c-0.4-0.4-0.4-1,0-1.4c3.5-3.5,3.5-9.2,0-12.7c-0.4-0.4-0.4-1,0-1.4s1-0.4,1.4,0
		c4.3,4.3,4.3,11.3,0,15.6C19.6,20,19.3,20.1,19.1,20.1z M4.9,20.1c-0.3,0-0.5-0.1-0.7-0.3c-4.3-4.3-4.3-11.3,0-15.6
		c0.4-0.4,1-0.4,1.4,0s0.4,1,0,1.4c-3.5,3.5-3.5,9.2,0,12.7c0.4,0.4,0.4,1,0,1.4C5.4,20,5.2,20.1,4.9,20.1z M16.2,17.2
		c-0.2,0-0.3,0-0.4-0.1c-0.5-0.2-0.7-0.8-0.4-1.3c0.1-0.1,0.2-0.2,0.3-0.3c1.9-1.9,1.9-5.1-0.1-7c-0.4-0.4-0.4-1,0-1.4
		c0.4-0.4,1-0.4,1.4,0c2.7,2.7,2.7,7.2,0,9.9C16.8,17.1,16.5,17.2,16.2,17.2z M7.8,17.2c-0.3,0-0.5-0.1-0.7-0.3
		c-2.7-2.7-2.7-7.2,0-9.9l0,0c0.4-0.4,1-0.4,1.4,0s0.4,1,0,1.4l0,0C7.5,9.4,7,10.7,7,12s0.5,2.6,1.5,3.5c0.4,0.4,0.4,1,0,1.4
		C8.3,17.1,8,17.2,7.8,17.2z"/>
</g>
</svg>
