<?xml version="1.0" encoding="utf-8"?>
<!-- Generator: Adobe Illustrator 23.0.3, SVG Export Plug-In . SVG Version: 6.00 Build 0)  -->
<svg version="1.1" id="Ebene_1" xmlns="http://www.w3.org/2000/svg" xmlns:xlink="http://www.w3.org/1999/xlink" x="0px" y="0px"
	 viewBox="0 0 24 24" style="enable-background:new 0 0 24 24;" xml:space="preserve">
<g>
	<path d="M7,11H1c-0.6,0-1-0.4-1-1V4c0-0.6,0.4-1,1-1s1,0.4,1,1v5h5c0.6,0,1,0.4,1,1S7.6,11,7,11z"/>
</g>
<g>
	<path d="M23,21c-0.6,0-1-0.4-1-1v-5h-5c-0.6,0-1-0.4-1-1s0.4-1,1-1h6c0.6,0,1,0.4,1,1v6C24,20.6,23.6,21,23,21z"/>
</g>
<g>
	<path d="M12,22c-2.6,0-5.1-1-7.1-2.9c-1-1-1.9-2.3-2.4-3.7c-0.2-0.5,0.1-1.1,0.6-1.3s1.1,0.1,1.3,0.6c0.4,1.1,1,2.2,1.9,3
		c3.1,3.1,8.2,3.1,11.3,0l4.7-4.4c0.4-0.4,1-0.4,1.4,0s0.4,1,0,1.4L19,19.1C17.1,21,14.6,22,12,22z M1,11c-0.3,0-0.5-0.1-0.7-0.3
		c-0.4-0.4-0.4-1,0-1.4L5,4.9c1-1,2.3-1.8,3.7-2.3c2.5-0.9,5.2-0.7,7.6,0.4c2.4,1.2,4.2,3.2,5.1,5.7c0.2,0.5-0.1,1.1-0.6,1.3
		s-1.1-0.1-1.3-0.6c-0.7-2-2.2-3.6-4.1-4.6c-1.9-0.9-4.1-1-6.1-0.3c-1.1,0.4-2.2,1-3,1.9l-4.7,4.4C1.5,10.9,1.2,11,1,11z"/>
</g>
</svg>
