<?xml version="1.0" encoding="utf-8"?>
<!-- Generator: Adobe Illustrator 23.0.3, SVG Export Plug-In . SVG Version: 6.00 Build 0)  -->
<svg version="1.1" id="Ebene_1" xmlns="http://www.w3.org/2000/svg" xmlns:xlink="http://www.w3.org/1999/xlink" x="0px" y="0px"
	 viewBox="0 0 24 24" style="enable-background:new 0 0 24 24;" xml:space="preserve">
<g>
	<path d="M23,11h-6c-0.6,0-1-0.4-1-1s0.4-1,1-1h5V4c0-0.6,0.4-1,1-1s1,0.4,1,1v6C24,10.6,23.6,11,23,11z"/>
</g>
<g>
	<path d="M1,21c-0.6,0-1-0.4-1-1v-6c0-0.6,0.4-1,1-1h6c0.6,0,1,0.4,1,1s-0.4,1-1,1H2v5C2,20.6,1.6,21,1,21z"/>
</g>
<g>
	<path d="M12,22L12,22c-2.7,0-5.2-1-7.1-2.9l-4.6-4.3c-0.4-0.4-0.4-1,0-1.4s1-0.4,1.4,0l4.6,4.4C7.9,19.2,9.9,20,12,20l0,0
		c2.1,0,4.1-0.8,5.7-2.3c0.8-0.8,1.5-1.9,1.9-3c0.2-0.5,0.8-0.8,1.3-0.6s0.8,0.8,0.6,1.3c-0.5,1.4-1.3,2.7-2.4,3.7
		C17.2,21,14.7,22,12,22z M23,11c-0.2,0-0.5-0.1-0.7-0.3l-4.6-4.4c-0.9-0.9-1.9-1.5-3-1.9c-2-0.7-4.2-0.6-6.1,0.3
		c-2,1-3.4,2.6-4.1,4.6c-0.2,0.5-0.8,0.8-1.3,0.6C2.7,9.8,2.4,9.2,2.6,8.7C3.5,6.1,5.3,4.1,7.7,3c2.4-1.2,5.1-1.3,7.6-0.4
		C16.7,3.1,18,3.9,19,5l4.6,4.3c0.4,0.4,0.4,1,0,1.4C23.5,10.9,23.3,11,23,11z"/>
</g>
</svg>
