<?xml version="1.0" encoding="utf-8"?>
<!-- Generator: Adobe Illustrator 23.0.3, SVG Export Plug-In . SVG Version: 6.00 Build 0)  -->
<svg version="1.1" id="Ebene_1" xmlns="http://www.w3.org/2000/svg" xmlns:xlink="http://www.w3.org/1999/xlink" x="0px" y="0px"
	 viewBox="0 0 24 24" style="enable-background:new 0 0 24 24;" xml:space="preserve">
<g>
	<path d="M17,10c-0.3,0-0.5-0.1-0.7-0.3c-0.4-0.4-0.4-1,0-1.4L19.6,5l-3.3-3.3c-0.4-0.4-0.4-1,0-1.4s1-0.4,1.4,0l4,4
		c0.4,0.4,0.4,1,0,1.4l-4,4C17.5,9.9,17.3,10,17,10z"/>
</g>
<g>
	<path d="M3,12c-0.6,0-1-0.4-1-1V9c0-2.8,2.2-5,5-5h14c0.6,0,1,0.4,1,1s-0.4,1-1,1H7C5.3,6,4,7.3,4,9v2C4,11.6,3.6,12,3,12z"/>
</g>
<g>
	<path d="M7,24c-0.3,0-0.5-0.1-0.7-0.3l-4-4c-0.4-0.4-0.4-1,0-1.4l4-4c0.4-0.4,1-0.4,1.4,0s0.4,1,0,1.4L4.4,19l3.3,3.3
		c0.4,0.4,0.4,1,0,1.4C7.5,23.9,7.3,24,7,24z"/>
</g>
<g>
	<path d="M17,20H3c-0.6,0-1-0.4-1-1s0.4-1,1-1h14c1.7,0,3-1.3,3-3v-2c0-0.6,0.4-1,1-1s1,0.4,1,1v2C22,17.8,19.8,20,17,20z"/>
</g>
</svg>
