<?xml version="1.0" encoding="utf-8"?>
<!-- Generator: Adobe Illustrator 23.0.3, SVG Export Plug-In . SVG Version: 6.00 Build 0)  -->
<svg version="1.1" id="Ebene_1" xmlns="http://www.w3.org/2000/svg" xmlns:xlink="http://www.w3.org/1999/xlink" x="0px" y="0px"
	 viewBox="0 0 24 24" style="enable-background:new 0 0 24 24;" xml:space="preserve">
<g>
	<path d="M11,20c-0.2,0-0.4-0.1-0.6-0.2l-9-7C1.1,12.6,1,12.3,1,12s0.1-0.6,0.4-0.8l9-7c0.3-0.2,0.7-0.3,1.1-0.1
		C11.8,4.3,12,4.6,12,5v14c0,0.4-0.2,0.7-0.6,0.9C11.3,20,11.1,20,11,20z M3.6,12l6.4,5V7L3.6,12z"/>
</g>
<g>
	<path d="M22,20c-0.2,0-0.4-0.1-0.6-0.2l-9-7C12.1,12.6,12,12.3,12,12s0.1-0.6,0.4-0.8l9-7c0.3-0.2,0.7-0.3,1.1-0.1
		C22.8,4.3,23,4.6,23,5v14c0,0.4-0.2,0.7-0.6,0.9C22.3,20,22.1,20,22,20z M14.6,12l6.4,5V7L14.6,12z"/>
</g>
</svg>
