<?xml version="1.0" encoding="utf-8"?>
<!-- Generator: Adobe Illustrator 23.0.3, SVG Export Plug-In . SVG Version: 6.00 Build 0)  -->
<svg version="1.1" id="Ebene_1" xmlns="http://www.w3.org/2000/svg" xmlns:xlink="http://www.w3.org/1999/xlink" x="0px" y="0px"
	 viewBox="0 0 24 24" style="enable-background:new 0 0 24 24;" xml:space="preserve">
<g>
	<path d="M23,11h-6c-0.6,0-1-0.4-1-1s0.4-1,1-1h5V4c0-0.6,0.4-1,1-1s1,0.4,1,1v6C24,10.6,23.6,11,23,11z"/>
</g>
<g>
	<path d="M12,22c-1.1,0-2.2-0.2-3.3-0.6c-5.2-1.8-7.9-7.6-6.1-12.8s7.6-7.9,12.8-6.1c1.4,0.5,2.7,1.3,3.7,2.4l4.6,4.3
		c0.4,0.4,0.4,1,0,1.4s-1,0.4-1.4,0l-4.6-4.4c-0.9-0.9-1.9-1.5-3-1.9C10.5,3,5.9,5.2,4.5,9.3C3,13.5,5.2,18.1,9.3,19.5
		c4.2,1.5,8.7-0.7,10.2-4.9c0.2-0.5,0.8-0.8,1.3-0.6s0.8,0.8,0.6,1.3C20,19.4,16.1,22,12,22z"/>
</g>
</svg>
