<?xml version="1.0" encoding="utf-8"?>
<!-- Generator: Adobe Illustrator 23.0.3, SVG Export Plug-In . SVG Version: 6.00 Build 0)  -->
<svg version="1.1" id="Ebene_1" xmlns="http://www.w3.org/2000/svg" xmlns:xlink="http://www.w3.org/1999/xlink" x="0px" y="0px"
	 viewBox="0 0 24 24" style="enable-background:new 0 0 24 24;" xml:space="preserve">
<g>
	<path d="M13,21c-0.6,0-1-0.4-1-1c0-4.4-3.6-8-8-8c-0.6,0-1-0.4-1-1s0.4-1,1-1c5.5,0,10,4.5,10,10C14,20.6,13.6,21,13,21z"/>
</g>
<g>
	<path d="M20,21c-0.6,0-1-0.4-1-1c0-8.3-6.7-15-15-15C3.4,5,3,4.6,3,4s0.4-1,1-1c9.4,0,17,7.6,17,17C21,20.6,20.6,21,20,21z"/>
</g>
<g>
	<circle cx="5" cy="19" r="2"/>
</g>
</svg>
