<?xml version="1.0" encoding="utf-8"?>
<!-- Generator: Adobe Illustrator 23.0.3, SVG Export Plug-In . SVG Version: 6.00 Build 0)  -->
<svg version="1.1" id="Ebene_1" xmlns="http://www.w3.org/2000/svg" xmlns:xlink="http://www.w3.org/1999/xlink" x="0px" y="0px"
	 viewBox="0 0 24 24" style="enable-background:new 0 0 24 24;" xml:space="preserve">
<g>
	<path d="M19,22H5c-1.7,0-3-1.3-3-3V5c0-1.7,1.3-3,3-3h11c0.3,0,0.5,0.1,0.7,0.3l5,5C21.9,7.5,22,7.7,22,8v11C22,20.7,20.7,22,19,22
		z M5,4C4.4,4,4,4.4,4,5v14c0,0.6,0.4,1,1,1h14c0.6,0,1-0.4,1-1V8.4L15.6,4H5z"/>
</g>
<g>
	<path d="M17,22c-0.6,0-1-0.4-1-1v-7H8v7c0,0.6-0.4,1-1,1s-1-0.4-1-1v-8c0-0.6,0.4-1,1-1h10c0.6,0,1,0.4,1,1v8
		C18,21.6,17.6,22,17,22z"/>
</g>
<g>
	<path d="M15,9H7C6.4,9,6,8.6,6,8V3c0-0.6,0.4-1,1-1s1,0.4,1,1v4h7c0.6,0,1,0.4,1,1S15.6,9,15,9z"/>
</g>
</svg>
