<?xml version="1.0" encoding="utf-8"?>
<!-- Generator: Adobe Illustrator 23.0.3, SVG Export Plug-In . SVG Version: 6.00 Build 0)  -->
<svg version="1.1" id="Ebene_1" xmlns="http://www.w3.org/2000/svg" xmlns:xlink="http://www.w3.org/1999/xlink" x="0px" y="0px"
	 viewBox="0 0 24 24" style="enable-background:new 0 0 24 24;" xml:space="preserve">
<g>
	<path d="M6,10c-2.2,0-4-1.8-4-4s1.8-4,4-4s4,1.8,4,4S8.2,10,6,10z M6,4C4.9,4,4,4.9,4,6s0.9,2,2,2s2-0.9,2-2S7.1,4,6,4z"/>
</g>
<g>
	<path d="M6,22c-2.2,0-4-1.8-4-4s1.8-4,4-4s4,1.8,4,4S8.2,22,6,22z M6,16c-1.1,0-2,0.9-2,2s0.9,2,2,2s2-0.9,2-2S7.1,16,6,16z"/>
</g>
<g>
	<path d="M8.1,16.9c-0.3,0-0.5-0.1-0.7-0.3c-0.4-0.4-0.4-1,0-1.4L19.3,3.3c0.4-0.4,1-0.4,1.4,0s0.4,1,0,1.4L8.8,16.6
		C8.6,16.8,8.4,16.9,8.1,16.9z"/>
</g>
<g>
	<path d="M20,21c-0.3,0-0.5-0.1-0.7-0.3l-5.5-5.5c-0.4-0.4-0.4-1,0-1.4s1-0.4,1.4,0l5.5,5.5c0.4,0.4,0.4,1,0,1.4
		C20.5,20.9,20.3,21,20,21z"/>
</g>
<g>
	<path d="M12,13c-0.3,0-0.5-0.1-0.7-0.3L7.4,8.8C7,8.4,7,7.8,7.4,7.4s1-0.4,1.4,0l3.9,3.9c0.4,0.4,0.4,1,0,1.4
		C12.5,12.9,12.3,13,12,13z"/>
</g>
</svg>
