<?xml version="1.0" encoding="utf-8"?>
<!-- Generator: Adobe Illustrator 23.0.3, SVG Export Plug-In . SVG Version: 6.00 Build 0)  -->
<svg version="1.1" id="Ebene_1" xmlns="http://www.w3.org/2000/svg" xmlns:xlink="http://www.w3.org/1999/xlink" x="0px" y="0px"
	 viewBox="0 0 24 24" style="enable-background:new 0 0 24 24;" xml:space="preserve">
<g>
	<path d="M19.7,15c-0.1,0-0.2,0-0.3,0c-0.5-0.2-0.8-0.7-0.7-1.2c0.2-0.6,0.3-1.1,0.3-1.7V5.7l-7-2.6l-2.8,1C8.7,4.3,8.1,4,7.9,3.5
		S8,2.4,8.5,2.2L11.7,1c0.2-0.1,0.5-0.1,0.7,0l8,3C20.7,4.2,21,4.6,21,5v7c0,0.8-0.1,1.6-0.4,2.3C20.5,14.7,20.1,15,19.7,15z"/>
</g>
<g>
	<path d="M12,23c-0.2,0-0.3,0-0.4-0.1C11.2,22.7,3,18.5,3,12V5c0-0.4,0.3-0.8,0.7-0.9l0.7-0.3c0.5-0.2,1.1,0.1,1.3,0.6
		S5.6,5.5,5.1,5.7H5V12c0,4.5,5.4,7.9,7,8.9c1.8-1,3.5-2.3,4.9-3.9c0.4-0.4,1-0.4,1.4-0.1s0.4,1,0.1,1.4c-1.7,1.9-3.7,3.4-5.9,4.6
		C12.3,23,12.2,23,12,23z"/>
</g>
<g>
	<path d="M23,24c-0.3,0-0.5-0.1-0.7-0.3l-22-22c-0.4-0.4-0.4-1,0-1.4s1-0.4,1.4,0l22,22c0.4,0.4,0.4,1,0,1.4
		C23.5,23.9,23.3,24,23,24z"/>
</g>
</svg>
