<?xml version="1.0" encoding="utf-8"?>
<!-- Generator: Adobe Illustrator 23.0.3, SVG Export Plug-In . SVG Version: 6.00 Build 0)  -->
<svg version="1.1" id="Ebene_1" xmlns="http://www.w3.org/2000/svg" xmlns:xlink="http://www.w3.org/1999/xlink" x="0px" y="0px"
	 viewBox="0 0 24 24" style="enable-background:new 0 0 24 24;" xml:space="preserve">
<g>
	<circle cx="9" cy="21" r="2"/>
</g>
<g>
	<circle cx="20" cy="21" r="2"/>
</g>
<g>
	<path d="M9.6,17c-1.4,0-2.6-1-2.9-2.4L5,6.2V6.1L4.2,2H1C0.4,2,0,1.6,0,1s0.4-1,1-1h4c0.5,0,0.9,0.3,1,0.8L6.8,5H23
		c0.3,0,0.6,0.1,0.8,0.4C24,5.6,24,5.9,24,6.2l-1.6,8.4c-0.3,1.4-1.6,2.4-3,2.4H9.6C9.7,17,9.6,17,9.6,17z M7.2,7l1.4,7.2
		c0.1,0.5,0.5,0.8,1,0.8h9.7c0.5,0,0.9-0.3,1-0.8L21.8,7H7.2z"/>
</g>
</svg>
