<?xml version="1.0" encoding="utf-8"?>
<!-- Generator: Adobe Illustrator 23.0.3, SVG Export Plug-In . SVG Version: 6.00 Build 0)  -->
<svg version="1.1" id="Ebene_1" xmlns="http://www.w3.org/2000/svg" xmlns:xlink="http://www.w3.org/1999/xlink" x="0px" y="0px"
	 viewBox="0 0 24 24" style="enable-background:new 0 0 24 24;" xml:space="preserve">
<g>
	<path d="M19,23H5c-1.7,0-3-1.3-3-3V6c0-0.2,0.1-0.4,0.2-0.6l3-4C5.4,1.1,5.7,1,6,1h12c0.3,0,0.6,0.1,0.8,0.4l3,4
		C21.9,5.6,22,5.8,22,6v14C22,21.7,20.7,23,19,23z M4,6.3V20c0,0.6,0.4,1,1,1h14c0.6,0,1-0.4,1-1V6.3L17.5,3h-11L4,6.3z"/>
</g>
<g>
	<path d="M21,7H3C2.4,7,2,6.6,2,6s0.4-1,1-1h18c0.6,0,1,0.4,1,1S21.6,7,21,7z"/>
</g>
<g>
	<path d="M12,15c-2.8,0-5-2.2-5-5c0-0.6,0.4-1,1-1s1,0.4,1,1c0,1.7,1.3,3,3,3s3-1.3,3-3c0-0.6,0.4-1,1-1s1,0.4,1,1
		C17,12.8,14.8,15,12,15z"/>
</g>
</svg>
