<?xml version="1.0" encoding="utf-8"?>
<!-- Generator: Adobe Illustrator 23.0.3, SVG Export Plug-In . SVG Version: 6.00 Build 0)  -->
<svg version="1.1" id="Ebene_1" xmlns="http://www.w3.org/2000/svg" xmlns:xlink="http://www.w3.org/1999/xlink" x="0px" y="0px"
	 viewBox="0 0 24 24" style="enable-background:new 0 0 24 24;" xml:space="preserve">
<g>
	<path d="M21,9c-0.6,0-1-0.4-1-1V4h-4c-0.6,0-1-0.4-1-1s0.4-1,1-1h5c0.6,0,1,0.4,1,1v5C22,8.6,21.6,9,21,9z"/>
</g>
<g>
	<path d="M4,21c-0.3,0-0.5-0.1-0.7-0.3c-0.4-0.4-0.4-1,0-1.4l17-17c0.4-0.4,1-0.4,1.4,0s0.4,1,0,1.4l-17,17C4.5,20.9,4.3,21,4,21z"
		/>
</g>
<g>
	<path d="M21,22h-5c-0.6,0-1-0.4-1-1s0.4-1,1-1h4v-4c0-0.6,0.4-1,1-1s1,0.4,1,1v5C22,21.6,21.6,22,21,22z"/>
</g>
<g>
	<path d="M21,22c-0.3,0-0.5-0.1-0.7-0.3l-6-6c-0.4-0.4-0.4-1,0-1.4s1-0.4,1.4,0l6,6c0.4,0.4,0.4,1,0,1.4C21.5,21.9,21.3,22,21,22z"
		/>
</g>
<g>
	<path d="M9,10c-0.3,0-0.5-0.1-0.7-0.3l-5-5c-0.4-0.4-0.4-1,0-1.4s1-0.4,1.4,0l5,5c0.4,0.4,0.4,1,0,1.4C9.5,9.9,9.3,10,9,10z"/>
</g>
</svg>
