<?xml version="1.0" encoding="utf-8"?>
<!-- Generator: Adobe Illustrator 23.0.3, SVG Export Plug-In . SVG Version: 6.00 Build 0)  -->
<svg version="1.1" id="Ebene_1" xmlns="http://www.w3.org/2000/svg" xmlns:xlink="http://www.w3.org/1999/xlink" x="0px" y="0px"
	 viewBox="0 0 24 24" style="enable-background:new 0 0 24 24;" xml:space="preserve">
<g>
	<path d="M5,21c-0.1,0-0.3,0-0.4-0.1C4.2,20.7,4,20.4,4,20V4c0-0.4,0.2-0.7,0.6-0.9c0.3-0.2,0.7-0.1,1,0.1l10,8
		c0.2,0.2,0.4,0.5,0.4,0.8s-0.1,0.6-0.4,0.8l-10,8C5.4,20.9,5.2,21,5,21z M6,6.1v11.8l7.4-5.9L6,6.1z"/>
</g>
<g>
	<path d="M19,20c-0.6,0-1-0.4-1-1V5c0-0.6,0.4-1,1-1s1,0.4,1,1v14C20,19.6,19.6,20,19,20z"/>
</g>
</svg>
