<?xml version="1.0" encoding="utf-8"?>
<!-- Generator: Adobe Illustrator 23.0.3, SVG Export Plug-In . SVG Version: 6.00 Build 0)  -->
<svg version="1.1" id="Ebene_1" xmlns="http://www.w3.org/2000/svg" xmlns:xlink="http://www.w3.org/1999/xlink" x="0px" y="0px"
	 viewBox="0 0 24 24" style="enable-background:new 0 0 24 24;" xml:space="preserve">
<g>
	<path d="M14.5,11C13.1,11,12,9.9,12,8.5v-5C12,2.1,13.1,1,14.5,1S17,2.1,17,3.5v5C17,9.9,15.9,11,14.5,11z M14.5,3
		C14.2,3,14,3.2,14,3.5v5C14,8.8,14.2,9,14.5,9S15,8.8,15,8.5v-5C15,3.2,14.8,3,14.5,3z"/>
</g>
<g>
	<path d="M20.5,11H19c-0.6,0-1-0.4-1-1V8.5C18,7.1,19.1,6,20.5,6S23,7.1,23,8.5S21.9,11,20.5,11z M20,9h0.5C20.8,9,21,8.8,21,8.5
		S20.8,8,20.5,8S20,8.2,20,8.5V9z"/>
</g>
<g>
	<path d="M9.5,23C8.1,23,7,21.9,7,20.5v-5C7,14.1,8.1,13,9.5,13s2.5,1.1,2.5,2.5v5C12,21.9,10.9,23,9.5,23z M9.5,15
		C9.2,15,9,15.2,9,15.5v5C9,20.8,9.2,21,9.5,21s0.5-0.2,0.5-0.5v-5C10,15.2,9.8,15,9.5,15z"/>
</g>
<g>
	<path d="M3.5,18C2.1,18,1,16.9,1,15.5S2.1,13,3.5,13H5c0.6,0,1,0.4,1,1v1.5C6,16.9,4.9,18,3.5,18z M3.5,15C3.2,15,3,15.2,3,15.5
		S3.2,16,3.5,16S4,15.8,4,15.5V15H3.5z"/>
</g>
<g>
	<path d="M20.5,17h-5c-1.4,0-2.5-1.1-2.5-2.5s1.1-2.5,2.5-2.5h5c1.4,0,2.5,1.1,2.5,2.5S21.9,17,20.5,17z M15.5,14
		c-0.3,0-0.5,0.2-0.5,0.5s0.2,0.5,0.5,0.5h5c0.3,0,0.5-0.2,0.5-0.5S20.8,14,20.5,14H15.5z"/>
</g>
<g>
	<path d="M15.5,23c-1.4,0-2.5-1.1-2.5-2.5V19c0-0.6,0.4-1,1-1h1.5c1.4,0,2.5,1.1,2.5,2.5S16.9,23,15.5,23z M15,20v0.5
		c0,0.3,0.2,0.5,0.5,0.5s0.5-0.2,0.5-0.5S15.8,20,15.5,20H15z"/>
</g>
<g>
	<path d="M8.5,12h-5C2.1,12,1,10.9,1,9.5S2.1,7,3.5,7h5C9.9,7,11,8.1,11,9.5S9.9,12,8.5,12z M3.5,9C3.2,9,3,9.2,3,9.5S3.2,10,3.5,10
		h5C8.8,10,9,9.8,9,9.5S8.8,9,8.5,9H3.5z"/>
</g>
<g>
	<path d="M10,6H8.5C7.1,6,6,4.9,6,3.5S7.1,1,8.5,1S11,2.1,11,3.5V5C11,5.6,10.6,6,10,6z M8.5,3C8.2,3,8,3.2,8,3.5S8.2,4,8.5,4H9V3.5
		C9,3.2,8.8,3,8.5,3z"/>
</g>
</svg>
