<?xml version="1.0" encoding="utf-8"?>
<!-- Generator: Adobe Illustrator 23.0.3, SVG Export Plug-In . SVG Version: 6.00 Build 0)  -->
<svg version="1.1" id="Ebene_1" xmlns="http://www.w3.org/2000/svg" xmlns:xlink="http://www.w3.org/1999/xlink" x="0px" y="0px"
	 viewBox="0 0 24 24" style="enable-background:new 0 0 24 24;" xml:space="preserve">
<g>
	<path d="M4,22c-0.6,0-1-0.4-1-1v-7c0-0.6,0.4-1,1-1s1,0.4,1,1v7C5,21.6,4.6,22,4,22z"/>
</g>
<g>
	<path d="M4,11c-0.6,0-1-0.4-1-1V3c0-0.6,0.4-1,1-1s1,0.4,1,1v7C5,10.6,4.6,11,4,11z"/>
</g>
<g>
	<path d="M12,22c-0.6,0-1-0.4-1-1v-9c0-0.6,0.4-1,1-1s1,0.4,1,1v9C13,21.6,12.6,22,12,22z"/>
</g>
<g>
	<path d="M12,9c-0.6,0-1-0.4-1-1V3c0-0.6,0.4-1,1-1s1,0.4,1,1v5C13,8.6,12.6,9,12,9z"/>
</g>
<g>
	<path d="M20,22c-0.6,0-1-0.4-1-1v-5c0-0.6,0.4-1,1-1s1,0.4,1,1v5C21,21.6,20.6,22,20,22z"/>
</g>
<g>
	<path d="M20,13c-0.6,0-1-0.4-1-1V3c0-0.6,0.4-1,1-1s1,0.4,1,1v9C21,12.6,20.6,13,20,13z"/>
</g>
<g>
	<path d="M7,15H1c-0.6,0-1-0.4-1-1s0.4-1,1-1h6c0.6,0,1,0.4,1,1S7.6,15,7,15z"/>
</g>
<g>
	<path d="M15,9H9C8.4,9,8,8.6,8,8s0.4-1,1-1h6c0.6,0,1,0.4,1,1S15.6,9,15,9z"/>
</g>
<g>
	<path d="M23,17h-6c-0.6,0-1-0.4-1-1s0.4-1,1-1h6c0.6,0,1,0.4,1,1S23.6,17,23,17z"/>
</g>
</svg>
