<?xml version="1.0" encoding="utf-8"?>
<!-- Generator: Adobe Illustrator 23.0.3, SVG Export Plug-In . SVG Version: 6.00 Build 0)  -->
<svg version="1.1" id="Ebene_1" xmlns="http://www.w3.org/2000/svg" xmlns:xlink="http://www.w3.org/1999/xlink" x="0px" y="0px"
	 viewBox="0 0 24 24" style="enable-background:new 0 0 24 24;" xml:space="preserve">
<g>
	<path d="M17,23H7c-1.7,0-3-1.3-3-3V4c0-1.7,1.3-3,3-3h10c1.7,0,3,1.3,3,3v16C20,21.7,18.7,23,17,23z M7,3C6.4,3,6,3.4,6,4v16
		c0,0.6,0.4,1,1,1h10c0.6,0,1-0.4,1-1V4c0-0.6-0.4-1-1-1H7z"/>
</g>
<g>
	<path d="M12,19c-0.3,0-0.5-0.1-0.7-0.3C11.1,18.5,11,18.3,11,18c0-0.1,0-0.3,0.1-0.4s0.1-0.2,0.2-0.3l0.1-0.1
		c0.1,0,0.1-0.1,0.2-0.1c0.1,0,0.1,0,0.2-0.1c0.3-0.1,0.7,0,0.9,0.3c0.1,0.1,0.2,0.2,0.2,0.3C13,17.7,13,17.9,13,18
		c0,0.3-0.1,0.5-0.3,0.7C12.5,18.9,12.3,19,12,19z"/>
</g>
</svg>
