<?xml version="1.0" encoding="utf-8"?>
<!-- Generator: Adobe Illustrator 23.0.3, SVG Export Plug-In . SVG Version: 6.00 Build 0)  -->
<svg version="1.1" id="Ebene_1" xmlns="http://www.w3.org/2000/svg" xmlns:xlink="http://www.w3.org/1999/xlink" x="0px" y="0px"
	 viewBox="0 0 24 24" style="enable-background:new 0 0 24 24;" xml:space="preserve">
<g>
	<path d="M18,23H6c-1.7,0-3-1.3-3-3V4c0-1.7,1.3-3,3-3h12c1.7,0,3,1.3,3,3v16C21,21.7,19.7,23,18,23z M6,3C5.4,3,5,3.4,5,4v16
		c0,0.6,0.4,1,1,1h12c0.6,0,1-0.4,1-1V4c0-0.6-0.4-1-1-1H6z"/>
</g>
<g>
	<path d="M12,19c-2.8,0-5-2.2-5-5s2.2-5,5-5s5,2.2,5,5S14.8,19,12,19z M12,11c-1.7,0-3,1.3-3,3s1.3,3,3,3s3-1.3,3-3S13.7,11,12,11z"
		/>
</g>
<g>
	<path d="M12,7c-0.3,0-0.5-0.1-0.7-0.3C11.1,6.5,11,6.3,11,6s0.1-0.5,0.3-0.7C11.5,5.1,11.9,5,12.2,5c0.1,0,0.1,0,0.2,0.1
		c0.1,0,0.1,0.1,0.2,0.1l0.1,0.1C12.9,5.5,13,5.7,13,6c0,0.1,0,0.3-0.1,0.4s-0.1,0.2-0.2,0.3c-0.1,0-0.1,0.1-0.1,0.1
		c-0.1,0-0.1,0.1-0.2,0.1c-0.1,0-0.1,0-0.2,0.1C12.1,7,12.1,7,12,7z"/>
</g>
</svg>
