<?xml version="1.0" encoding="utf-8"?>
<!-- Generator: Adobe Illustrator 23.0.3, SVG Export Plug-In . SVG Version: 6.00 Build 0)  -->
<svg version="1.1" id="Ebene_1" xmlns="http://www.w3.org/2000/svg" xmlns:xlink="http://www.w3.org/1999/xlink" x="0px" y="0px"
	 viewBox="0 0 24 24" style="enable-background:new 0 0 24 24;" xml:space="preserve">
<g>
	<path d="M18.2,22c-0.2,0-0.3,0-0.5-0.1l-5.7-3l-5.7,3C6,22.1,5.6,22,5.2,21.8c-0.3-0.2-0.5-0.6-0.4-1l1.1-6.4L1.3,10
		C1,9.7,0.9,9.3,1,9c0.1-0.4,0.4-0.6,0.8-0.7l6.4-0.9l2.9-5.8c0.3-0.7,1.5-0.7,1.8,0l2.9,5.8l6.4,0.9c0.3,0,0.6,0.3,0.8,0.7
		c0.1,0.4,0,0.8-0.3,1l-4.6,4.5l1.1,6.4c0.1,0.4-0.1,0.8-0.4,1C18.6,22,18.4,22,18.2,22z M4.1,10l3.5,3.5C7.9,13.7,8,14,8,14.3
		l-0.8,4.9l4.4-2.3c0.3-0.2,0.6-0.2,0.9,0l4.4,2.3L16,14.3c-0.1-0.3,0.1-0.7,0.3-0.9l3.5-3.5l-4.9-0.7c-0.3,0-0.6-0.3-0.8-0.5
		L12,4.3L9.8,8.7C9.7,9,9.4,9.2,9.1,9.2L4.1,10z"/>
</g>
</svg>
