<?xml version="1.0" encoding="utf-8"?>
<!-- Generator: Adobe Illustrator 23.0.3, SVG Export Plug-In . SVG Version: 6.00 Build 0)  -->
<svg version="1.1" id="Ebene_1" xmlns="http://www.w3.org/2000/svg" xmlns:xlink="http://www.w3.org/1999/xlink" x="0px" y="0px"
	 viewBox="0 0 24 24" style="enable-background:new 0 0 24 24;" xml:space="preserve">
<g>
	<path d="M17,19c-0.6,0-1-0.4-1-1c0-2.2-1.8-4-4-4s-4,1.8-4,4c0,0.6-0.4,1-1,1s-1-0.4-1-1c0-3.3,2.7-6,6-6s6,2.7,6,6
		C18,18.6,17.6,19,17,19z"/>
</g>
<g>
	<path d="M12,10c-0.6,0-1-0.4-1-1V2c0-0.6,0.4-1,1-1s1,0.4,1,1v7C13,9.6,12.6,10,12,10z"/>
</g>
<g>
	<path d="M5.6,12.6c-0.3,0-0.5-0.1-0.7-0.3l-1.4-1.4c-0.4-0.4-0.4-1,0-1.4s1-0.4,1.4,0l1.4,1.4c0.4,0.4,0.4,1,0,1.4
		C6.2,12.5,5.9,12.6,5.6,12.6z"/>
</g>
<g>
	<path d="M3,19H1c-0.6,0-1-0.4-1-1s0.4-1,1-1h2c0.6,0,1,0.4,1,1S3.6,19,3,19z"/>
</g>
<g>
	<path d="M23,19h-2c-0.6,0-1-0.4-1-1s0.4-1,1-1h2c0.6,0,1,0.4,1,1S23.6,19,23,19z"/>
</g>
<g>
	<path d="M18.4,12.6c-0.3,0-0.5-0.1-0.7-0.3c-0.4-0.4-0.4-1,0-1.4l1.4-1.4c0.4-0.4,1-0.4,1.4,0s0.4,1,0,1.4l-1.4,1.4
		C18.9,12.5,18.6,12.6,18.4,12.6z"/>
</g>
<g>
	<path d="M23,23H1c-0.6,0-1-0.4-1-1s0.4-1,1-1h22c0.6,0,1,0.4,1,1S23.6,23,23,23z"/>
</g>
<g>
	<path d="M16,7c-0.3,0-0.5-0.1-0.7-0.3L12,3.4L8.7,6.7c-0.4,0.4-1,0.4-1.4,0s-0.4-1,0-1.4l4-4c0.4-0.4,1-0.4,1.4,0l4,4
		c0.4,0.4,0.4,1,0,1.4C16.5,6.9,16.3,7,16,7z"/>
</g>
</svg>
