<?xml version="1.0" encoding="utf-8"?>
<!-- Generator: Adobe Illustrator 23.0.3, SVG Export Plug-In . SVG Version: 6.00 Build 0)  -->
<svg version="1.1" id="Ebene_1" xmlns="http://www.w3.org/2000/svg" xmlns:xlink="http://www.w3.org/1999/xlink" x="0px" y="0px"
	 viewBox="0 0 24 24" style="enable-background:new 0 0 24 24;" xml:space="preserve">
<g>
	<path d="M12,23C5.9,23,1,18.1,1,12S5.9,1,12,1s11,4.9,11,11S18.1,23,12,23z M12,3c-5,0-9,4-9,9s4,9,9,9s9-4,9-9S17,3,12,3z"/>
</g>
<g>
	<path d="M12,19c-3.9,0-7-3.1-7-7s3.1-7,7-7s7,3.1,7,7S15.9,19,12,19z M12,7c-2.8,0-5,2.2-5,5s2.2,5,5,5s5-2.2,5-5S14.8,7,12,7z"/>
</g>
<g>
	<path d="M12,15c-1.7,0-3-1.3-3-3s1.3-3,3-3s3,1.3,3,3S13.7,15,12,15z M12,11c-0.6,0-1,0.4-1,1s0.4,1,1,1s1-0.4,1-1S12.6,11,12,11z"
		/>
</g>
</svg>
