<?xml version="1.0" encoding="utf-8"?>
<!-- Generator: Adobe Illustrator 23.0.3, SVG Export Plug-In . SVG Version: 6.00 Build 0)  -->
<svg version="1.1" id="Ebene_1" xmlns="http://www.w3.org/2000/svg" xmlns:xlink="http://www.w3.org/1999/xlink" x="0px" y="0px"
	 viewBox="0 0 24 24" style="enable-background:new 0 0 24 24;" xml:space="preserve">
<g>
	<path d="M4,18c-0.3,0-0.5-0.1-0.7-0.3c-0.4-0.4-0.4-1,0-1.4L8.6,11L3.3,5.7c-0.4-0.4-0.4-1,0-1.4s1-0.4,1.4,0l6,6
		c0.4,0.4,0.4,1,0,1.4l-6,6C4.5,17.9,4.3,18,4,18z"/>
</g>
<g>
	<path d="M20,20h-8c-0.6,0-1-0.4-1-1s0.4-1,1-1h8c0.6,0,1,0.4,1,1S20.6,20,20,20z"/>
</g>
</svg>
