<?xml version="1.0" encoding="utf-8"?>
<!-- Generator: Adobe Illustrator 23.0.3, SVG Export Plug-In . SVG Version: 6.00 Build 0)  -->
<svg version="1.1" id="Ebene_1" xmlns="http://www.w3.org/2000/svg" xmlns:xlink="http://www.w3.org/1999/xlink" x="0px" y="0px"
	 viewBox="0 0 24 24" style="enable-background:new 0 0 24 24;" xml:space="preserve">
<g>
	<path d="M11.5,24c-0.4,0-0.7,0-1.1-0.1c-1.4-0.3-2.7-1.1-3.5-2.3C5.3,19.2,5.8,16,8,14.3V3.5C8,1.6,9.6,0,11.5,0S15,1.6,15,3.5
		v10.8c0.4,0.3,0.8,0.7,1.1,1.2c1.7,2.5,1,5.9-1.5,7.6C13.6,23.7,12.6,24,11.5,24z M11.5,2C10.7,2,10,2.7,10,3.5v11.3
		c0,0.3-0.2,0.6-0.4,0.8c-0.8,0.5-1.3,1.3-1.5,2.2c-0.2,0.9,0,1.8,0.5,2.6c1.1,1.6,3.2,2,4.9,1c1.6-1.1,2-3.2,1-4.9
		c-0.3-0.4-0.6-0.7-1-1c-0.3-0.2-0.4-0.5-0.4-0.8V3.5C13,2.7,12.3,2,11.5,2z"/>
</g>
</svg>
