<?xml version="1.0" encoding="utf-8"?>
<!-- Generator: Adobe Illustrator 23.0.3, SVG Export Plug-In . SVG Version: 6.00 Build 0)  -->
<svg version="1.1" id="Ebene_1" xmlns="http://www.w3.org/2000/svg" xmlns:xlink="http://www.w3.org/1999/xlink" x="0px" y="0px"
	 viewBox="0 0 24 24" style="enable-background:new 0 0 24 24;" xml:space="preserve">
<g>
	<path d="M13,23c-2.2,0-4-1.8-4-4v-3H4.3c-0.2,0-0.3,0-0.5,0c-1.6-0.2-2.8-1.8-2.5-3.4l1.4-9C3,2.1,4.2,1,5.7,1h13.9c0,0,0,0,0.1,0
		c1.6,0,3,1.2,3.3,2.9V4v7v0.1c-0.2,1.7-1.7,2.9-3.3,2.9h-2L14,22.4C13.8,22.8,13.4,23,13,23z M10,14c0.6,0,1,0.4,1,1v4
		c0,0.9,0.6,1.6,1.4,1.9l3.6-8.1V3H5.7c-0.5,0-0.9,0.4-1,0.9l-1.4,9C3.2,13.4,3.6,14,4.1,14c0.1,0,0.1,0,0.2,0H10z M18,12h1.7
		c0.7,0,1.2-0.4,1.3-1.1V4.1C20.9,3.5,20.3,3,19.7,3H18V12z"/>
</g>
</svg>
