<?xml version="1.0" encoding="utf-8"?>
<!-- Generator: Adobe Illustrator 23.0.3, SVG Export Plug-In . SVG Version: 6.00 Build 0)  -->
<svg version="1.1" id="Ebene_1" xmlns="http://www.w3.org/2000/svg" xmlns:xlink="http://www.w3.org/1999/xlink" x="0px" y="0px"
	 viewBox="0 0 24 24" style="enable-background:new 0 0 24 24;" xml:space="preserve">
<g>
	<path d="M16,20H8c-4.4,0-8-3.6-8-8s3.6-8,8-8h8c4.4,0,8,3.6,8,8S20.4,20,16,20z M8,6c-3.3,0-6,2.7-6,6s2.7,6,6,6h8c3.3,0,6-2.7,6-6
		s-2.7-6-6-6H8z"/>
</g>
<g>
	<path d="M8,16c-2.2,0-4-1.8-4-4s1.8-4,4-4s4,1.8,4,4S10.2,16,8,16z M8,10c-1.1,0-2,0.9-2,2s0.9,2,2,2s2-0.9,2-2S9.1,10,8,10z"/>
</g>
</svg>
