<?xml version="1.0" encoding="utf-8"?>
<!-- Generator: Adobe Illustrator 23.0.3, SVG Export Plug-In . SVG Version: 6.00 Build 0)  -->
<svg version="1.1" id="Ebene_1" xmlns="http://www.w3.org/2000/svg" xmlns:xlink="http://www.w3.org/1999/xlink" x="0px" y="0px"
	 viewBox="0 0 24 24" style="enable-background:new 0 0 24 24;" xml:space="preserve">
<g>
	<path d="M16,17H1c-0.6,0-1-0.4-1-1V3c0-0.6,0.4-1,1-1h15c0.6,0,1,0.4,1,1v13C17,16.6,16.6,17,16,17z M2,15h13V4H2V15z"/>
</g>
<g>
	<path d="M23,17h-7c-0.6,0-1-0.4-1-1V8c0-0.6,0.4-1,1-1h4c0.3,0,0.5,0.1,0.7,0.3l3,3c0.2,0.2,0.3,0.4,0.3,0.7v5
		C24,16.6,23.6,17,23,17z M17,15h5v-3.6L19.6,9H17V15z"/>
</g>
<g>
	<path d="M5.5,22C3.6,22,2,20.4,2,18.5S3.6,15,5.5,15S9,16.6,9,18.5S7.4,22,5.5,22z M5.5,17C4.7,17,4,17.7,4,18.5S4.7,20,5.5,20
		S7,19.3,7,18.5S6.3,17,5.5,17z"/>
</g>
<g>
	<path d="M18.5,22c-1.9,0-3.5-1.6-3.5-3.5s1.6-3.5,3.5-3.5s3.5,1.6,3.5,3.5S20.4,22,18.5,22z M18.5,17c-0.8,0-1.5,0.7-1.5,1.5
		s0.7,1.5,1.5,1.5s1.5-0.7,1.5-1.5S19.3,17,18.5,17z"/>
</g>
</svg>
