<?xml version="1.0" encoding="utf-8"?>
<!-- Generator: Adobe Illustrator 23.0.3, SVG Export Plug-In . SVG Version: 6.00 Build 0)  -->
<svg version="1.1" id="Ebene_1" xmlns="http://www.w3.org/2000/svg" xmlns:xlink="http://www.w3.org/1999/xlink" x="0px" y="0px"
	 viewBox="0 0 24 24" style="enable-background:new 0 0 24 24;" xml:space="preserve">
<g>
	<path d="M15,23c-2.2,0-4-1.8-4-4v-6H1c-0.3,0-0.6-0.1-0.7-0.3C0.1,12.5,0,12.2,0,11.9C0.6,6.2,5.1,1.6,10.9,1.1
		C17.5,0.4,23.4,5.3,24,11.9c0,0.3-0.1,0.6-0.3,0.8S23.3,13,23,13H13v6c0,1.1,0.9,2,2,2s2-0.9,2-2c0-0.6,0.4-1,1-1s1,0.4,1,1
		C19,21.2,17.2,23,15,23z M12,11h9.8c-1-4.9-5.7-8.4-10.8-8c-4.4,0.4-8,3.7-8.9,8H12z"/>
</g>
</svg>
