<?xml version="1.0" encoding="utf-8"?>
<!-- Generator: Adobe Illustrator 23.0.3, SVG Export Plug-In . SVG Version: 6.00 Build 0)  -->
<svg version="1.1" id="Ebene_1" xmlns="http://www.w3.org/2000/svg" xmlns:xlink="http://www.w3.org/1999/xlink" x="0px" y="0px"
	 viewBox="0 0 24 24" style="enable-background:new 0 0 24 24;" xml:space="preserve">
<g>
	<path d="M12,17c-3.9,0-7-3.1-7-7V3c0-0.6,0.4-1,1-1s1,0.4,1,1v7c0,2.8,2.2,5,5,5s5-2.2,5-5V3c0-0.6,0.4-1,1-1s1,0.4,1,1v7
		C19,13.9,15.9,17,12,17z"/>
</g>
<g>
	<path d="M20,22H4c-0.6,0-1-0.4-1-1s0.4-1,1-1h16c0.6,0,1,0.4,1,1S20.6,22,20,22z"/>
</g>
</svg>
