<?xml version="1.0" encoding="utf-8"?>
<!-- Generator: Adobe Illustrator 23.0.3, SVG Export Plug-In . SVG Version: 6.00 Build 0)  -->
<svg version="1.1" id="Ebene_1" xmlns="http://www.w3.org/2000/svg" xmlns:xlink="http://www.w3.org/1999/xlink" x="0px" y="0px"
	 viewBox="0 0 24 24" style="enable-background:new 0 0 24 24;" xml:space="preserve">
<g>
	<path d="M19,23H5c-1.7,0-3-1.3-3-3v-7c0-1.7,1.3-3,3-3h14c1.7,0,3,1.3,3,3v7C22,21.7,20.7,23,19,23z M5,12c-0.6,0-1,0.4-1,1v7
		c0,0.6,0.4,1,1,1h14c0.6,0,1-0.4,1-1v-7c0-0.6-0.4-1-1-1H5z"/>
</g>
<g>
	<path d="M7,12c-0.6,0-1-0.4-1-1V7c0-1.6,0.6-3.1,1.8-4.2C8.9,1.6,10.4,1,12,1l0,0c2.8,0,5.3,2,5.9,4.8C18,6.3,17.6,6.9,17.1,7
		S16,6.8,15.9,6.2C15.5,4.3,13.9,3,12,3l0,0c-1.1,0-2.1,0.4-2.8,1.2C8.4,4.9,8,5.9,8,7v4C8,11.6,7.6,12,7,12z"/>
</g>
</svg>
