<?xml version="1.0" encoding="utf-8"?>
<!-- Generator: Adobe Illustrator 23.0.3, SVG Export Plug-In . SVG Version: 6.00 Build 0)  -->
<svg version="1.1" id="Ebene_1" xmlns="http://www.w3.org/2000/svg" xmlns:xlink="http://www.w3.org/1999/xlink" x="0px" y="0px"
	 viewBox="0 0 24 24" style="enable-background:new 0 0 24 24;" xml:space="preserve">
<g>
	<path d="M19,22H5c-1.7,0-3-1.3-3-3v-4c0-0.6,0.4-1,1-1s1,0.4,1,1v4c0,0.6,0.4,1,1,1h14c0.6,0,1-0.4,1-1v-4c0-0.6,0.4-1,1-1
		s1,0.4,1,1v4C22,20.7,20.7,22,19,22z"/>
</g>
<g>
	<path d="M17,9c-0.3,0-0.5-0.1-0.7-0.3L12,4.4L7.7,8.7c-0.4,0.4-1,0.4-1.4,0s-0.4-1,0-1.4l5-5c0.4-0.4,1-0.4,1.4,0l5,5
		c0.4,0.4,0.4,1,0,1.4C17.5,8.9,17.3,9,17,9z"/>
</g>
<g>
	<path d="M12,16c-0.6,0-1-0.4-1-1V3c0-0.6,0.4-1,1-1s1,0.4,1,1v12C13,15.6,12.6,16,12,16z"/>
</g>
</svg>
