<?xml version="1.0" encoding="utf-8"?>
<!-- Generator: Adobe Illustrator 23.0.3, SVG Export Plug-In . SVG Version: 6.00 Build 0)  -->
<svg version="1.1" id="Ebene_1" xmlns="http://www.w3.org/2000/svg" xmlns:xlink="http://www.w3.org/1999/xlink" x="0px" y="0px"
	 viewBox="0 0 24 24" style="enable-background:new 0 0 24 24;" xml:space="preserve">
<g>
	<path d="M14,20H3c-1.7,0-3-1.3-3-3V7c0-1.7,1.3-3,3-3h2c0.6,0,1,0.4,1,1S5.6,6,5,6H3C2.4,6,2,6.4,2,7v10c0,0.6,0.4,1,1,1h11
		c0.6,0,1-0.4,1-1v-1c0-0.6,0.4-1,1-1s1,0.4,1,1v1C17,18.7,15.7,20,14,20z M23,18c-0.6,0-1-0.4-1-1V9l-4.4,3.2
		c-0.4,0.3-0.9,0.2-1.3-0.1l-1-1c-0.2-0.2-0.3-0.4-0.3-0.7V7c0-0.6-0.4-1-1-1h-3.3c-0.6,0-1-0.4-1-1s0.4-1,1-1H14c1.7,0,3,1.3,3,3
		v2.9l0.1,0.1l5.3-3.8c0.3-0.2,0.7-0.3,1-0.1C23.8,6.3,24,6.6,24,7v10C24,17.6,23.6,18,23,18z"/>
</g>
<g>
	<path d="M23,24c-0.3,0-0.5-0.1-0.7-0.3l-22-22c-0.4-0.4-0.4-1,0-1.4s1-0.4,1.4,0l22,22c0.4,0.4,0.4,1,0,1.4
		C23.5,23.9,23.3,24,23,24z"/>
</g>
</svg>
