<?xml version="1.0" encoding="utf-8"?>
<!-- Generator: Adobe Illustrator 23.0.3, SVG Export Plug-In . SVG Version: 6.00 Build 0)  -->
<svg version="1.1" id="Ebene_1" xmlns="http://www.w3.org/2000/svg" xmlns:xlink="http://www.w3.org/1999/xlink" x="0px" y="0px"
	 viewBox="0 0 24 24" style="enable-background:new 0 0 24 24;" xml:space="preserve">
<g>
	<path d="M5.5,17c-3,0-5.5-2.5-5.5-5.5S2.5,6,5.5,6S11,8.5,11,11.5S8.5,17,5.5,17z M5.5,8C3.6,8,2,9.6,2,11.5S3.6,15,5.5,15
		S9,13.4,9,11.5S7.4,8,5.5,8z"/>
</g>
<g>
	<path d="M18.5,17c-3,0-5.5-2.5-5.5-5.5S15.5,6,18.5,6S24,8.5,24,11.5S21.5,17,18.5,17z M18.5,8C16.6,8,15,9.6,15,11.5
		s1.6,3.5,3.5,3.5s3.5-1.6,3.5-3.5S20.4,8,18.5,8z"/>
</g>
<g>
	<path d="M18.5,17h-13c-0.6,0-1-0.4-1-1s0.4-1,1-1h13c0.6,0,1,0.4,1,1S19.1,17,18.5,17z"/>
</g>
</svg>
