<?xml version="1.0" encoding="utf-8"?>
<!-- Generator: Adobe Illustrator 23.0.3, SVG Export Plug-In . SVG Version: 6.00 Build 0)  -->
<svg version="1.1" id="Ebene_1" xmlns="http://www.w3.org/2000/svg" xmlns:xlink="http://www.w3.org/1999/xlink" x="0px" y="0px"
	 viewBox="0 0 24 24" style="enable-background:new 0 0 24 24;" xml:space="preserve">
<g>
	<path d="M11,20c-0.2,0-0.4-0.1-0.6-0.2L5.6,16H2c-0.6,0-1-0.4-1-1V9c0-0.6,0.4-1,1-1h3.6l4.7-3.8C10.6,4,11,3.9,11.4,4.1
		C11.8,4.3,12,4.6,12,5v14c0,0.4-0.2,0.7-0.6,0.9C11.3,20,11.1,20,11,20z M3,14h3c0.2,0,0.4,0.1,0.6,0.2l3.4,2.7V7.1L6.6,9.8
		C6.4,9.9,6.2,10,6,10H3V14z"/>
</g>
</svg>
