<?xml version="1.0" encoding="utf-8"?>
<!-- Generator: Adobe Illustrator 23.0.3, SVG Export Plug-In . SVG Version: 6.00 Build 0)  -->
<svg version="1.1" id="Ebene_1" xmlns="http://www.w3.org/2000/svg" xmlns:xlink="http://www.w3.org/1999/xlink" x="0px" y="0px"
	 viewBox="0 0 24 24" style="enable-background:new 0 0 24 24;" xml:space="preserve">
<g>
	<path d="M11,20c-0.2,0-0.4-0.1-0.6-0.2L5.6,16H2c-0.6,0-1-0.4-1-1V9c0-0.6,0.4-1,1-1h3.6l4.7-3.8C10.6,4,11,3.9,11.4,4.1
		C11.8,4.3,12,4.6,12,5v14c0,0.4-0.2,0.7-0.6,0.9C11.3,20,11.1,20,11,20z M3,14h3c0.2,0,0.4,0.1,0.6,0.2l3.4,2.7V7.1L6.6,9.8
		C6.4,9.9,6.2,10,6,10H3V14z"/>
</g>
<g>
	<path d="M17,16c-0.3,0-0.5-0.1-0.7-0.3c-0.4-0.4-0.4-1,0-1.4l6-6c0.4-0.4,1-0.4,1.4,0c0.4,0.4,0.4,1,0,1.4l-6,6
		C17.5,15.9,17.3,16,17,16z"/>
</g>
<g>
	<path d="M23,16c-0.3,0-0.5-0.1-0.7-0.3l-6-6c-0.4-0.4-0.4-1,0-1.4s1-0.4,1.4,0l6,6c0.4,0.4,0.4,1,0,1.4C23.5,15.9,23.3,16,23,16z"
		/>
</g>
</svg>
