<?xml version="1.0" encoding="utf-8"?>
<!-- Generator: Adobe Illustrator 23.0.3, SVG Export Plug-In . SVG Version: 6.00 Build 0)  -->
<svg version="1.1" id="Ebene_1" xmlns="http://www.w3.org/2000/svg" xmlns:xlink="http://www.w3.org/1999/xlink" x="0px" y="0px"
	 viewBox="0 0 24 24" style="enable-background:new 0 0 24 24;" xml:space="preserve">
<g>
	<path d="M12,20c-4.4,0-8-3.6-8-8s3.6-8,8-8s8,3.6,8,8S16.4,20,12,20z M12,6c-3.3,0-6,2.7-6,6s2.7,6,6,6s6-2.7,6-6S15.3,6,12,6z"/>
</g>
<g>
	<path d="M13.5,14.5c-0.3,0-0.5-0.1-0.7-0.3l-1.5-1.5C11.1,12.5,11,12.3,11,12V9c0-0.6,0.4-1,1-1s1,0.4,1,1v2.6l1.2,1.2
		c0.4,0.4,0.4,1,0,1.4C14,14.4,13.8,14.5,13.5,14.5z"/>
</g>
<g>
	<path d="M9.8,24c-1.6,0-2.8-1.2-3-2.7l-0.3-3.8c-0.1-0.5,0.4-1,0.9-1.1c0.6,0,1,0.4,1.1,0.9l0.3,3.8c0,0.5,0.5,0.9,1,0.9l0,0h4.3
		l0,0c0.5,0,1-0.4,1-0.9l0.3-3.8c0.1-0.5,0.5-1,1.1-0.9c0.5,0.1,1,0.5,0.9,1.1l-0.3,3.8c-0.1,1.6-1.4,2.7-3,2.7l0,0H9.8L9.8,24z
		 M16.5,7.6c-0.5,0-0.9-0.4-1-0.9l-0.4-3.8c0-0.5-0.5-0.9-1-0.9H9.8c-0.5,0-0.9,0.4-1,0.9L8.5,6.7C8.4,7.3,8,7.7,7.4,7.6
		s-1-0.5-0.9-1.1l0.3-3.8C7,1.2,8.3,0,9.8,0h4.4l0,0c1.6,0,2.8,1.2,3,2.7l0.4,3.8C17.6,7.1,17.2,7.6,16.5,7.6
		C16.6,7.6,16.6,7.6,16.5,7.6z"/>
</g>
</svg>
