<?xml version="1.0" encoding="utf-8"?>
<!-- Generator: Adobe Illustrator 23.0.3, SVG Export Plug-In . SVG Version: 6.00 Build 0)  -->
<svg version="1.1" id="Ebene_1" xmlns="http://www.w3.org/2000/svg" xmlns:xlink="http://www.w3.org/1999/xlink" x="0px" y="0px"
	 viewBox="0 0 24 24" style="enable-background:new 0 0 24 24;" xml:space="preserve">
<g>
	<path d="M23,24c-0.3,0-0.5-0.1-0.7-0.3l-22-22c-0.4-0.4-0.4-1,0-1.4s1-0.4,1.4,0l22,22c0.4,0.4,0.4,1,0,1.4
		C23.5,23.9,23.3,24,23,24z"/>
</g>
<g>
	<path d="M19,13.5c-0.2,0-0.5-0.1-0.6-0.2c-0.6-0.5-1.3-1-2.1-1.4c-0.5-0.2-0.7-0.8-0.5-1.3s0.8-0.7,1.3-0.5c0.9,0.4,1.7,1,2.5,1.6
		c0.4,0.4,0.5,1,0.1,1.4C19.6,13.4,19.3,13.5,19,13.5z"/>
</g>
<g>
	<path d="M5,13.5c-0.3,0-0.6-0.1-0.8-0.4c-0.4-0.4-0.3-1.1,0.1-1.4C6,10.4,7.9,9.5,10,9.2c0.6-0.1,1.1,0.3,1.2,0.8
		c0.1,0.5-0.3,1.1-0.8,1.2c-1.7,0.3-3.4,1-4.7,2.2C5.5,13.5,5.2,13.5,5,13.5z"/>
</g>
<g>
	<path d="M22.6,10c-0.2,0-0.5-0.1-0.7-0.2c-3-2.7-7.1-4-11.1-3.7c-0.5,0-1-0.4-1.1-0.9c0-0.6,0.4-1,0.9-1.1
		c4.6-0.4,9.2,1.2,12.6,4.2c0.4,0.4,0.5,1,0.1,1.4C23.1,9.9,22.9,10,22.6,10z"/>
</g>
<g>
	<path d="M1.4,10c-0.3,0-0.6-0.1-0.8-0.3c-0.4-0.4-0.3-1,0.1-1.4C2.2,7,3.9,6,5.7,5.2c0.6-0.2,1.1,0,1.4,0.6c0.2,0.5,0,1.1-0.6,1.3
		C4.9,7.7,3.4,8.6,2.1,9.7C1.9,9.9,1.7,10,1.4,10z"/>
</g>
<g>
	<path d="M15.5,17.1c-0.2,0-0.4-0.1-0.6-0.2c-1.7-1.2-4.1-1.2-5.8,0c-0.5,0.3-1.1,0.2-1.4-0.2c-0.3-0.5-0.2-1.1,0.2-1.4
		c2.4-1.7,5.7-1.7,8.1,0c0.5,0.3,0.6,0.9,0.2,1.4C16.1,17,15.8,17.1,15.5,17.1z"/>
</g>
<g>
	<path d="M12,21c-0.3,0-0.5-0.1-0.7-0.3c-0.1-0.1-0.2-0.2-0.2-0.3c0-0.1-0.1-0.2-0.1-0.4c0-0.3,0.1-0.5,0.3-0.7s0.6-0.3,0.9-0.3
		c0.1,0,0.1,0,0.2,0.1c0.1,0,0.1,0,0.2,0.1l0.1,0.1c0.2,0.2,0.3,0.5,0.3,0.7c0,0.1,0,0.3-0.1,0.4s-0.1,0.2-0.2,0.3
		C12.5,20.9,12.3,21,12,21z"/>
</g>
</svg>
