<?xml version="1.0" encoding="utf-8"?>
<!-- Generator: Adobe Illustrator 23.0.3, SVG Export Plug-In . SVG Version: 6.00 Build 0)  -->
<svg version="1.1" id="Ebene_1" xmlns="http://www.w3.org/2000/svg" xmlns:xlink="http://www.w3.org/1999/xlink" x="0px" y="0px"
	 viewBox="0 0 24 24" style="enable-background:new 0 0 24 24;" xml:space="preserve">
<g>
	<path d="M5,13.5c-0.3,0-0.6-0.1-0.8-0.4c-0.4-0.4-0.3-1.1,0.1-1.4C8.8,8,15.2,8,19.7,11.7c0.4,0.4,0.5,1,0.1,1.4s-1,0.5-1.4,0.1
		c-3.7-3.1-9.1-3.1-12.8,0C5.5,13.5,5.2,13.5,5,13.5z"/>
</g>
<g>
	<path d="M1.4,10c-0.3,0-0.6-0.1-0.8-0.3c-0.4-0.4-0.3-1,0.1-1.4c6.4-5.6,16.1-5.6,22.5,0c0.4,0.4,0.5,1,0.1,1.4s-1,0.5-1.4,0.1
		c-5.7-5-14.2-5-19.8,0C1.9,9.9,1.7,10,1.4,10z"/>
</g>
<g>
	<path d="M15.5,17.1c-0.2,0-0.4-0.1-0.6-0.2c-1.7-1.2-4.1-1.2-5.8,0c-0.5,0.3-1.1,0.2-1.4-0.2c-0.3-0.5-0.2-1.1,0.2-1.4
		c2.4-1.7,5.7-1.7,8.1,0c0.5,0.3,0.6,0.9,0.2,1.4C16.1,17,15.8,17.1,15.5,17.1z"/>
</g>
<g>
	<path d="M12,21c-0.3,0-0.5-0.1-0.7-0.3c-0.1-0.1-0.2-0.2-0.2-0.3c0-0.1-0.1-0.2-0.1-0.4c0-0.3,0.1-0.5,0.3-0.7s0.6-0.3,0.9-0.3
		c0.1,0,0.1,0,0.2,0.1c0.1,0,0.1,0,0.2,0.1l0.1,0.1c0.2,0.2,0.3,0.5,0.3,0.7c0,0.1,0,0.3-0.1,0.4s-0.1,0.2-0.2,0.3
		C12.5,20.9,12.3,21,12,21z"/>
</g>
</svg>
