<?xml version="1.0" encoding="utf-8"?>
<!-- Generator: Adobe Illustrator 23.0.3, SVG Export Plug-In . SVG Version: 6.00 Build 0)  -->
<svg version="1.1" id="Ebene_1" xmlns="http://www.w3.org/2000/svg" xmlns:xlink="http://www.w3.org/1999/xlink" x="0px" y="0px"
	 viewBox="0 0 24 24" style="enable-background:new 0 0 24 24;" xml:space="preserve">
<g>
	<path d="M14,21L14,21c-0.8,0-1.6-0.3-2.1-0.9c-0.4-0.4-0.4-1,0-1.4s1-0.4,1.4,0c0.2,0.2,0.4,0.3,0.7,0.3l0,0c0.3,0,0.5-0.1,0.7-0.3
		c0.2-0.2,0.3-0.4,0.3-0.7c0-0.3-0.1-0.5-0.3-0.7C14.5,17.1,14.3,17,14,17l0,0H2c-0.6,0-1-0.4-1-1s0.4-1,1-1h12l0,0
		c0.8,0,1.6,0.3,2.1,0.9c0.6,0.6,0.9,1.3,0.9,2.1c0,0.8-0.3,1.6-0.9,2.1C15.6,20.7,14.8,21,14,21z M19.5,13H2c-0.6,0-1-0.4-1-1
		s0.4-1,1-1h17.5c0.4,0,0.8-0.2,1.1-0.4c0.6-0.6,0.6-1.5,0-2.1s-1.5-0.6-2.1,0c-0.4,0.4-1,0.4-1.4,0s-0.4-1,0-1.4
		c1.4-1.4,3.6-1.4,4.9,0c1.4,1.4,1.4,3.6,0,5C21.3,12.6,20.4,13,19.5,13z M11,9L11,9H2C1.4,9,1,8.6,1,8s0.4-1,1-1h9l0,0
		c0.3,0,0.5-0.1,0.7-0.3c0.4-0.4,0.4-1,0-1.4C11.5,5.1,11.3,5,11,5l0,0c-0.3,0-0.5,0.1-0.7,0.3c-0.4,0.4-1,0.4-1.4,0s-0.4-1,0-1.4
		C9.4,3.3,10.2,3,11,3s1.6,0.3,2.1,0.9c1.2,1.2,1.2,3.1,0,4.2C12.6,8.7,11.8,9,11,9z"/>
</g>
</svg>
