<?xml version="1.0" encoding="utf-8"?>
<!-- Generator: Adobe Illustrator 23.0.3, SVG Export Plug-In . SVG Version: 6.00 Build 0)  -->
<svg version="1.1" id="Ebene_1" xmlns="http://www.w3.org/2000/svg" xmlns:xlink="http://www.w3.org/1999/xlink" x="0px" y="0px"
	 viewBox="0 0 24 24" style="enable-background:new 0 0 24 24;" xml:space="preserve">
<g>
	<path d="M19,22H5c-1.7,0-3-1.3-3-3V5c0-1.7,1.3-3,3-3h14c1.7,0,3,1.3,3,3v14C22,20.7,20.7,22,19,22z M5,4C4.4,4,4,4.4,4,5v14
		c0,0.6,0.4,1,1,1h14c0.6,0,1-0.4,1-1V5c0-0.6-0.4-1-1-1H5z"/>
</g>
<g>
	<path d="M15,16c-0.3,0-0.5-0.1-0.7-0.3l-6-6c-0.4-0.4-0.4-1,0-1.4c0.4-0.4,1-0.4,1.4,0l6,6c0.4,0.4,0.4,1,0,1.4
		C15.5,15.9,15.3,16,15,16z"/>
</g>
<g>
	<path d="M9,16c-0.3,0-0.5-0.1-0.7-0.3c-0.4-0.4-0.4-1,0-1.4l6-6c0.4-0.4,1-0.4,1.4,0c0.4,0.4,0.4,1,0,1.4l-6,6
		C9.5,15.9,9.3,16,9,16z"/>
</g>
</svg>
