<?xml version="1.0" encoding="utf-8"?>
<!-- Generator: Adobe Illustrator 23.0.3, SVG Export Plug-In . SVG Version: 6.00 Build 0)  -->
<svg version="1.1" id="Ebene_1" xmlns="http://www.w3.org/2000/svg" xmlns:xlink="http://www.w3.org/1999/xlink" x="0px" y="0px"
	 viewBox="0 0 24 24" style="enable-background:new 0 0 24 24;" xml:space="preserve">
<g>
	<path d="M12,20.5c-0.7,0-7.1,0-8.9-0.5c-1.3-0.3-2.3-1.3-2.6-2.6c-0.4-2-0.5-3.8-0.5-5.7C0,9.9,0.2,8,0.5,6.2
		c0.3-1.4,1.4-2.4,2.7-2.8C4.9,3,11.3,3,12,3s7.1,0,8.8,0.4c1.3,0.4,2.3,1.4,2.7,2.7c0,0,0,0,0,0.1C23.8,8,24,9.9,24,11.7
		s-0.2,3.6-0.5,5.4c-0.3,1.4-1.4,2.4-2.7,2.8C19.1,20.4,12.7,20.5,12,20.5z M12,5C9.3,5,4.8,5.1,3.7,5.4C3.1,5.6,2.6,6.1,2.4,6.7
		C2.1,8.3,2,10,2,11.7s0.1,3.5,0.4,5.2c0.1,0.5,0.6,1,1.2,1.1c1.2,0.3,5.6,0.4,8.3,0.4s7.2-0.1,8.3-0.4c0.6-0.2,1.1-0.7,1.2-1.3
		c0.3-1.6,0.4-3.3,0.4-5s-0.1-3.4-0.4-5.1c-0.2-0.6-0.6-1.1-1.2-1.3C19,5.1,13.9,5,12,5z"/>
</g>
<g>
	<path d="M9.8,16c-0.2,0-0.3,0-0.5-0.1C9,15.7,8.8,15.4,8.8,15V8.5c0-0.4,0.2-0.7,0.5-0.9s0.7-0.2,1,0l5.8,3.3
		c0.3,0.2,0.5,0.5,0.5,0.9s-0.2,0.7-0.5,0.9L10.3,16C10.1,16,9.9,16,9.8,16z M10.8,10.2v3.1l2.7-1.6L10.8,10.2z"/>
</g>
</svg>
