<?xml version="1.0" encoding="utf-8"?>
<!-- Generator: Adobe Illustrator 23.0.3, SVG Export Plug-In . SVG Version: 6.00 Build 0)  -->
<svg version="1.1" id="Ebene_1" xmlns="http://www.w3.org/2000/svg" xmlns:xlink="http://www.w3.org/1999/xlink" x="0px" y="0px"
	 viewBox="0 0 24 24" style="enable-background:new 0 0 24 24;" xml:space="preserve">
<g>
	<path d="M12.4,7.8h-0.1c-0.5-0.1-0.9-0.6-0.9-1.1l0.2-1.4l-0.2,0.3C11,6,10.4,6,9.9,5.7c-0.4-0.4-0.5-1-0.1-1.4l2.4-2.9
		C12.5,1,13,0.9,13.4,1.1s0.6,0.6,0.6,1l-0.6,4.8C13.3,7.4,12.9,7.8,12.4,7.8z"/>
</g>
<g>
	<path d="M18.6,13.9c-0.2,0-0.5-0.1-0.6-0.2c-0.4-0.4-0.5-1-0.1-1.4L19,11h-3.2c-0.6,0-1-0.4-1-1s0.4-1,1-1H21
		c0.4,0,0.7,0.2,0.9,0.6c0.2,0.4,0.1,0.8-0.1,1.1l-2.4,2.9C19.1,13.8,18.9,13.9,18.6,13.9z"/>
</g>
<g>
	<path d="M11,23c-0.1,0-0.3,0-0.4-0.1c-0.4-0.2-0.6-0.6-0.6-1l0.9-6.9H3c-0.4,0-0.7-0.2-0.9-0.6C1.9,14,2,13.6,2.2,13.3l5-6
		c0.4-0.4,1-0.5,1.4-0.1s0.5,1,0.1,1.4L5.1,13H12c0.3,0,0.6,0.1,0.7,0.3c0.2,0.2,0.3,0.5,0.2,0.8l-0.6,4.6l2.8-3.4
		c0.4-0.4,1-0.5,1.4-0.1c0.4,0.4,0.5,1,0.1,1.4l-5,6C11.6,22.9,11.3,23,11,23z"/>
</g>
<g>
	<path d="M23,24c-0.3,0-0.5-0.1-0.7-0.3l-22-22c-0.4-0.4-0.4-1,0-1.4s1-0.4,1.4,0l22,22c0.4,0.4,0.4,1,0,1.4
		C23.5,23.9,23.3,24,23,24z"/>
</g>
</svg>
