<?xml version="1.0" encoding="utf-8"?>
<!-- Generator: Adobe Illustrator 23.0.3, SVG Export Plug-In . SVG Version: 6.00 Build 0)  -->
<svg version="1.1" id="Ebene_1" xmlns="http://www.w3.org/2000/svg" xmlns:xlink="http://www.w3.org/1999/xlink" x="0px" y="0px"
	 viewBox="0 0 24 24" style="enable-background:new 0 0 24 24;" xml:space="preserve">
<g>
	<path d="M11,20c-5,0-9-4-9-9s4-9,9-9s9,4,9,9S16,20,11,20z M11,4c-3.9,0-7,3.1-7,7s3.1,7,7,7s7-3.1,7-7S14.9,4,11,4z"/>
</g>
<g>
	<path d="M21,22c-0.3,0-0.5-0.1-0.7-0.3L16,17.4c-0.4-0.4-0.4-1,0-1.4c0.4-0.4,1-0.4,1.4,0l4.3,4.3c0.4,0.4,0.4,1,0,1.4
		C21.5,21.9,21.3,22,21,22z"/>
</g>
<g>
	<path d="M11,15c-0.6,0-1-0.4-1-1V8c0-0.6,0.4-1,1-1s1,0.4,1,1v6C12,14.6,11.6,15,11,15z"/>
</g>
<g>
	<path d="M14,12H8c-0.6,0-1-0.4-1-1s0.4-1,1-1h6c0.6,0,1,0.4,1,1S14.6,12,14,12z"/>
</g>
</svg>
